solid OpenSCAD_Model
  facet normal 1 -0 0
    outer loop
      vertex 64 0 0
      vertex 64 42 -3.5
      vertex 64 42 0
    endloop
  endfacet
  facet normal 1 0 0
    outer loop
      vertex 64 42 -3.5
      vertex 64 0 0
      vertex 64 0 -3.5
    endloop
  endfacet
  facet normal 0 0 1
    outer loop
      vertex 64 42 0
      vertex 58.6 19 0
      vertex 64 0 0
    endloop
  endfacet
  facet normal 0 0 1
    outer loop
      vertex 64 42 0
      vertex 58.565 19.3327 0
      vertex 58.6 19 0
    endloop
  endfacet
  facet normal 0 0 1
    outer loop
      vertex 64 42 0
      vertex 58.4617 19.6508 0
      vertex 58.565 19.3327 0
    endloop
  endfacet
  facet normal 0 0 1
    outer loop
      vertex 64 42 0
      vertex 58.2944 19.9405 0
      vertex 58.4617 19.6508 0
    endloop
  endfacet
  facet normal 0 0 1
    outer loop
      vertex 64 42 0
      vertex 58.0706 20.189 0
      vertex 58.2944 19.9405 0
    endloop
  endfacet
  facet normal 0 0 1
    outer loop
      vertex 64 42 0
      vertex 57.8 20.3856 0
      vertex 58.0706 20.189 0
    endloop
  endfacet
  facet normal 0 0 1
    outer loop
      vertex 64 42 0
      vertex 57.4944 20.5217 0
      vertex 57.8 20.3856 0
    endloop
  endfacet
  facet normal 0 0 1
    outer loop
      vertex 64 42 0
      vertex 57.1672 20.5912 0
      vertex 57.4944 20.5217 0
    endloop
  endfacet
  facet normal 0 0 1
    outer loop
      vertex 64 42 0
      vertex 56.8328 20.5912 0
      vertex 57.1672 20.5912 0
    endloop
  endfacet
  facet normal 0 0 1
    outer loop
      vertex 64 42 0
      vertex 56.5056 20.5217 0
      vertex 56.8328 20.5912 0
    endloop
  endfacet
  facet normal 0 0 1
    outer loop
      vertex 64 42 0
      vertex 56.2 20.3856 0
      vertex 56.5056 20.5217 0
    endloop
  endfacet
  facet normal -0 0 1
    outer loop
      vertex 25 36 0
      vertex 56.2 20.3856 0
      vertex 64 42 0
    endloop
  endfacet
  facet normal 0 0 1
    outer loop
      vertex 56.2 20.3856 0
      vertex 25 36 0
      vertex 55.9294 20.189 0
    endloop
  endfacet
  facet normal 0 0 1
    outer loop
      vertex 55.9294 20.189 0
      vertex 25 36 0
      vertex 55.7056 19.9405 0
    endloop
  endfacet
  facet normal 0 0 1
    outer loop
      vertex 55.5383 19.6508 0
      vertex 25 26 0
      vertex 55.435 19.3327 0
    endloop
  endfacet
  facet normal 0 0 1
    outer loop
      vertex 55.7056 19.9405 0
      vertex 25 26 0
      vertex 55.5383 19.6508 0
    endloop
  endfacet
  facet normal -0 0 1
    outer loop
      vertex 25 26 0
      vertex 55.7056 19.9405 0
      vertex 25 36 0
    endloop
  endfacet
  facet normal -0 0 1
    outer loop
      vertex 0 42 0
      vertex 25 36 0
      vertex 64 42 0
    endloop
  endfacet
  facet normal 0 0 1
    outer loop
      vertex 23 36 0
      vertex 22 36 0
      vertex 23 26 0
    endloop
  endfacet
  facet normal 0 0 1
    outer loop
      vertex 25 36 0
      vertex 0 42 0
      vertex 23 36 0
    endloop
  endfacet
  facet normal 0 0 1
    outer loop
      vertex 23 36 0
      vertex 0 42 0
      vertex 22 36 0
    endloop
  endfacet
  facet normal 0 0 1
    outer loop
      vertex 0 42 0
      vertex 10 26 0
      vertex 10 36 0
    endloop
  endfacet
  facet normal 0 0 1
    outer loop
      vertex 10 26 0
      vertex 8.56504 19.3327 0
      vertex 8.6 19 0
    endloop
  endfacet
  facet normal 0 0 1
    outer loop
      vertex 10 26 0
      vertex 8.46167 19.6508 0
      vertex 8.56504 19.3327 0
    endloop
  endfacet
  facet normal 0 0 1
    outer loop
      vertex 10 26 0
      vertex 8.29443 19.9405 0
      vertex 8.46167 19.6508 0
    endloop
  endfacet
  facet normal 0 0 1
    outer loop
      vertex 10 26 0
      vertex 8.07061 20.189 0
      vertex 8.29443 19.9405 0
    endloop
  endfacet
  facet normal 0 0 1
    outer loop
      vertex 10 26 0
      vertex 7.8 20.3856 0
      vertex 8.07061 20.189 0
    endloop
  endfacet
  facet normal 0 0 1
    outer loop
      vertex 10 26 0
      vertex 7.49443 20.5217 0
      vertex 7.8 20.3856 0
    endloop
  endfacet
  facet normal 0 0 1
    outer loop
      vertex 10 26 0
      vertex 7.16724 20.5912 0
      vertex 7.49443 20.5217 0
    endloop
  endfacet
  facet normal 0 0 1
    outer loop
      vertex 10 26 0
      vertex 6.83275 20.5912 0
      vertex 7.16724 20.5912 0
    endloop
  endfacet
  facet normal 0 0 1
    outer loop
      vertex 10 26 0
      vertex 6.50557 20.5217 0
      vertex 6.83275 20.5912 0
    endloop
  endfacet
  facet normal 0 0 1
    outer loop
      vertex 10 26 0
      vertex 6.2 20.3856 0
      vertex 6.50557 20.5217 0
    endloop
  endfacet
  facet normal 0 -0 1
    outer loop
      vertex 5.92939 20.189 0
      vertex 10 26 0
      vertex 0 42 0
    endloop
  endfacet
  facet normal 0 0 1
    outer loop
      vertex 10 26 0
      vertex 5.92939 20.189 0
      vertex 6.2 20.3856 0
    endloop
  endfacet
  facet normal 0 0 1
    outer loop
      vertex 5.92939 20.189 0
      vertex 0 42 0
      vertex 5.70557 19.9405 0
    endloop
  endfacet
  facet normal 0 0 1
    outer loop
      vertex 5.70557 19.9405 0
      vertex 0 42 0
      vertex 5.53833 19.6508 0
    endloop
  endfacet
  facet normal 0 0 1
    outer loop
      vertex 5.43496 19.3327 0
      vertex 0 42 0
      vertex 5.4 19 0
    endloop
  endfacet
  facet normal 0 0 1
    outer loop
      vertex 5.53833 19.6508 0
      vertex 0 42 0
      vertex 5.43496 19.3327 0
    endloop
  endfacet
  facet normal 0 0 1
    outer loop
      vertex 22 36 0
      vertex 0 42 0
      vertex 10 36 0
    endloop
  endfacet
  facet normal -0 0 1
    outer loop
      vertex 58.565 18.6673 0
      vertex 64 0 0
      vertex 58.6 19 0
    endloop
  endfacet
  facet normal -0 0 1
    outer loop
      vertex 58.4617 18.3492 0
      vertex 64 0 0
      vertex 58.565 18.6673 0
    endloop
  endfacet
  facet normal -0 0 1
    outer loop
      vertex 58.2944 18.0595 0
      vertex 64 0 0
      vertex 58.4617 18.3492 0
    endloop
  endfacet
  facet normal -0 0 1
    outer loop
      vertex 58.0706 17.811 0
      vertex 64 0 0
      vertex 58.2944 18.0595 0
    endloop
  endfacet
  facet normal -0 0 1
    outer loop
      vertex 57.8 17.6144 0
      vertex 64 0 0
      vertex 58.0706 17.811 0
    endloop
  endfacet
  facet normal -0 0 1
    outer loop
      vertex 57.4944 17.4783 0
      vertex 64 0 0
      vertex 57.8 17.6144 0
    endloop
  endfacet
  facet normal -0 0 1
    outer loop
      vertex 57.1672 17.4088 0
      vertex 64 0 0
      vertex 57.4944 17.4783 0
    endloop
  endfacet
  facet normal -0 0 1
    outer loop
      vertex 56.8328 17.4088 0
      vertex 64 0 0
      vertex 57.1672 17.4088 0
    endloop
  endfacet
  facet normal 0 0 1
    outer loop
      vertex 56.5056 17.4783 0
      vertex 64 0 0
      vertex 56.8328 17.4088 0
    endloop
  endfacet
  facet normal 0 0 1
    outer loop
      vertex 56.2 17.6144 0
      vertex 64 0 0
      vertex 56.5056 17.4783 0
    endloop
  endfacet
  facet normal 0 0 1
    outer loop
      vertex 55.9294 17.811 0
      vertex 64 0 0
      vertex 56.2 17.6144 0
    endloop
  endfacet
  facet normal 0 0 1
    outer loop
      vertex 25 26 0
      vertex 55.9294 17.811 0
      vertex 55.7056 18.0595 0
    endloop
  endfacet
  facet normal 0 0 1
    outer loop
      vertex 25 26 0
      vertex 55.7056 18.0595 0
      vertex 55.5383 18.3492 0
    endloop
  endfacet
  facet normal 0 0 1
    outer loop
      vertex 55.435 19.3327 0
      vertex 25 26 0
      vertex 55.4 19 0
    endloop
  endfacet
  facet normal 0 0 1
    outer loop
      vertex 55.4 19 0
      vertex 25 26 0
      vertex 55.435 18.6673 0
    endloop
  endfacet
  facet normal 0 0 1
    outer loop
      vertex 55.435 18.6673 0
      vertex 25 26 0
      vertex 55.5383 18.3492 0
    endloop
  endfacet
  facet normal 0 0 1
    outer loop
      vertex 55.9294 17.811 0
      vertex 25 26 0
      vertex 64 0 0
    endloop
  endfacet
  facet normal 0 0 1
    outer loop
      vertex 8.29443 18.0595 0
      vertex 25 26 0
      vertex 23 26 0
    endloop
  endfacet
  facet normal 0 0 1
    outer loop
      vertex 22 26 0
      vertex 23 26 0
      vertex 22 36 0
    endloop
  endfacet
  facet normal 0 0 1
    outer loop
      vertex 8.29443 18.0595 0
      vertex 23 26 0
      vertex 22 26 0
    endloop
  endfacet
  facet normal 0 0 1
    outer loop
      vertex 8.6 19 0
      vertex 22 26 0
      vertex 10 26 0
    endloop
  endfacet
  facet normal 0 0 1
    outer loop
      vertex 8.56504 18.6673 0
      vertex 22 26 0
      vertex 8.6 19 0
    endloop
  endfacet
  facet normal 0 0 1
    outer loop
      vertex 8.46167 18.3492 0
      vertex 22 26 0
      vertex 8.56504 18.6673 0
    endloop
  endfacet
  facet normal 0 0 1
    outer loop
      vertex 8.29443 18.0595 0
      vertex 22 26 0
      vertex 8.46167 18.3492 0
    endloop
  endfacet
  facet normal 0 0 1
    outer loop
      vertex 25 26 0
      vertex 8.29443 18.0595 0
      vertex 8.07061 17.811 0
    endloop
  endfacet
  facet normal 0 0 1
    outer loop
      vertex 25 26 0
      vertex 8.07061 17.811 0
      vertex 0 0 0
    endloop
  endfacet
  facet normal 0 0 1
    outer loop
      vertex 0 0 0
      vertex 8.07061 17.811 0
      vertex 7.8 17.6144 0
    endloop
  endfacet
  facet normal 0 0 1
    outer loop
      vertex 0 0 0
      vertex 7.8 17.6144 0
      vertex 7.49443 17.4783 0
    endloop
  endfacet
  facet normal 0 0 1
    outer loop
      vertex 0 0 0
      vertex 7.49443 17.4783 0
      vertex 7.16724 17.4088 0
    endloop
  endfacet
  facet normal 0 0 1
    outer loop
      vertex 0 0 0
      vertex 7.16724 17.4088 0
      vertex 6.83275 17.4088 0
    endloop
  endfacet
  facet normal 0 0 1
    outer loop
      vertex 0 0 0
      vertex 6.83275 17.4088 0
      vertex 6.50557 17.4783 0
    endloop
  endfacet
  facet normal 0 0 1
    outer loop
      vertex 0 0 0
      vertex 5.4 19 0
      vertex 0 42 0
    endloop
  endfacet
  facet normal 0 0 1
    outer loop
      vertex 25 26 0
      vertex 0 0 0
      vertex 64 0 0
    endloop
  endfacet
  facet normal 0 0 1
    outer loop
      vertex 6.2 17.6144 0
      vertex 0 0 0
      vertex 6.50557 17.4783 0
    endloop
  endfacet
  facet normal 0 0 1
    outer loop
      vertex 5.92939 17.811 0
      vertex 0 0 0
      vertex 6.2 17.6144 0
    endloop
  endfacet
  facet normal 0 0 1
    outer loop
      vertex 5.70557 18.0595 0
      vertex 0 0 0
      vertex 5.92939 17.811 0
    endloop
  endfacet
  facet normal 0 0 1
    outer loop
      vertex 5.53833 18.3492 0
      vertex 0 0 0
      vertex 5.70557 18.0595 0
    endloop
  endfacet
  facet normal 0 0 1
    outer loop
      vertex 5.43496 18.6673 0
      vertex 0 0 0
      vertex 5.53833 18.3492 0
    endloop
  endfacet
  facet normal 0 0 1
    outer loop
      vertex 5.4 19 0
      vertex 0 0 0
      vertex 5.43496 18.6673 0
    endloop
  endfacet
  facet normal 0 0 -1
    outer loop
      vertex 64 0 -3.5
      vertex 60 19 -3.5
      vertex 64 42 -3.5
    endloop
  endfacet
  facet normal 0 0 -1
    outer loop
      vertex 64 0 -3.5
      vertex 59.9344 18.3763 -3.5
      vertex 60 19 -3.5
    endloop
  endfacet
  facet normal 0 0 -1
    outer loop
      vertex 64 0 -3.5
      vertex 59.7406 17.7798 -3.5
      vertex 59.9344 18.3763 -3.5
    endloop
  endfacet
  facet normal 0 0 -1
    outer loop
      vertex 64 0 -3.5
      vertex 59.4271 17.2366 -3.5
      vertex 59.7406 17.7798 -3.5
    endloop
  endfacet
  facet normal 0 0 -1
    outer loop
      vertex 64 0 -3.5
      vertex 59.0074 16.7706 -3.5
      vertex 59.4271 17.2366 -3.5
    endloop
  endfacet
  facet normal 0 0 -1
    outer loop
      vertex 64 0 -3.5
      vertex 58.5 16.4019 -3.5
      vertex 59.0074 16.7706 -3.5
    endloop
  endfacet
  facet normal 0 0 -1
    outer loop
      vertex 64 0 -3.5
      vertex 57.9271 16.1468 -3.5
      vertex 58.5 16.4019 -3.5
    endloop
  endfacet
  facet normal 0 0 -1
    outer loop
      vertex 64 0 -3.5
      vertex 57.3136 16.0164 -3.5
      vertex 57.9271 16.1468 -3.5
    endloop
  endfacet
  facet normal 0 0 -1
    outer loop
      vertex 64 0 -3.5
      vertex 56.6864 16.0164 -3.5
      vertex 57.3136 16.0164 -3.5
    endloop
  endfacet
  facet normal 0 0 -1
    outer loop
      vertex 64 0 -3.5
      vertex 56.0729 16.1468 -3.5
      vertex 56.6864 16.0164 -3.5
    endloop
  endfacet
  facet normal 0 0 -1
    outer loop
      vertex 64 0 -3.5
      vertex 55.5 16.4019 -3.5
      vertex 56.0729 16.1468 -3.5
    endloop
  endfacet
  facet normal 0 0 -1
    outer loop
      vertex 64 0 -3.5
      vertex 54.9926 16.7706 -3.5
      vertex 55.5 16.4019 -3.5
    endloop
  endfacet
  facet normal 0 0 -1
    outer loop
      vertex 9.00739 16.7706 -3.5
      vertex 54.9926 16.7706 -3.5
      vertex 64 0 -3.5
    endloop
  endfacet
  facet normal 0 0 -1
    outer loop
      vertex 54.9926 16.7706 -3.5
      vertex 9.00739 16.7706 -3.5
      vertex 54.5729 17.2366 -3.5
    endloop
  endfacet
  facet normal 0 0 -1
    outer loop
      vertex 54.0656 18.3763 -3.5
      vertex 22 26 -3.5
      vertex 54 19 -3.5
    endloop
  endfacet
  facet normal 0 0 -1
    outer loop
      vertex 54.2594 17.7798 -3.5
      vertex 22 26 -3.5
      vertex 54.0656 18.3763 -3.5
    endloop
  endfacet
  facet normal 0 -0 -1
    outer loop
      vertex 9.42705 17.2366 -3.5
      vertex 54.5729 17.2366 -3.5
      vertex 9.00739 16.7706 -3.5
    endloop
  endfacet
  facet normal 0 0 -1
    outer loop
      vertex 54.5729 17.2366 -3.5
      vertex 22 26 -3.5
      vertex 54.2594 17.7798 -3.5
    endloop
  endfacet
  facet normal 0 0 -1
    outer loop
      vertex 22 26 -3.5
      vertex 9.93444 18.3763 -3.5
      vertex 10 19 -3.5
    endloop
  endfacet
  facet normal 0 0 -1
    outer loop
      vertex 22 26 -3.5
      vertex 9.74064 17.7798 -3.5
      vertex 9.93444 18.3763 -3.5
    endloop
  endfacet
  facet normal 0 0 -1
    outer loop
      vertex 22 26 -3.5
      vertex 9.42705 17.2366 -3.5
      vertex 9.74064 17.7798 -3.5
    endloop
  endfacet
  facet normal 0 -0 -1
    outer loop
      vertex 22 26 -3.5
      vertex 54.5729 17.2366 -3.5
      vertex 9.42705 17.2366 -3.5
    endloop
  endfacet
  facet normal 0 0 -1
    outer loop
      vertex 0 0 -3.5
      vertex 9.00739 16.7706 -3.5
      vertex 64 0 -3.5
    endloop
  endfacet
  facet normal 0 0 -1
    outer loop
      vertex 9.00739 16.7706 -3.5
      vertex 0 0 -3.5
      vertex 8.5 16.4019 -3.5
    endloop
  endfacet
  facet normal 0 0 -1
    outer loop
      vertex 8.5 16.4019 -3.5
      vertex 0 0 -3.5
      vertex 7.92705 16.1468 -3.5
    endloop
  endfacet
  facet normal 0 0 -1
    outer loop
      vertex 7.92705 16.1468 -3.5
      vertex 0 0 -3.5
      vertex 7.31359 16.0164 -3.5
    endloop
  endfacet
  facet normal -0 0 -1
    outer loop
      vertex 7.31359 16.0164 -3.5
      vertex 0 0 -3.5
      vertex 6.68641 16.0164 -3.5
    endloop
  endfacet
  facet normal -0 0 -1
    outer loop
      vertex 4.06556 18.3763 -3.5
      vertex 0 0 -3.5
      vertex 4 19 -3.5
    endloop
  endfacet
  facet normal -0 0 -1
    outer loop
      vertex 4.25936 17.7798 -3.5
      vertex 0 0 -3.5
      vertex 4.06556 18.3763 -3.5
    endloop
  endfacet
  facet normal -0 0 -1
    outer loop
      vertex 4.57295 17.2366 -3.5
      vertex 0 0 -3.5
      vertex 4.25936 17.7798 -3.5
    endloop
  endfacet
  facet normal -0 0 -1
    outer loop
      vertex 4.99261 16.7706 -3.5
      vertex 0 0 -3.5
      vertex 4.57295 17.2366 -3.5
    endloop
  endfacet
  facet normal -0 0 -1
    outer loop
      vertex 5.5 16.4019 -3.5
      vertex 0 0 -3.5
      vertex 4.99261 16.7706 -3.5
    endloop
  endfacet
  facet normal -0 0 -1
    outer loop
      vertex 6.07295 16.1468 -3.5
      vertex 0 0 -3.5
      vertex 5.5 16.4019 -3.5
    endloop
  endfacet
  facet normal -0 0 -1
    outer loop
      vertex 6.68641 16.0164 -3.5
      vertex 0 0 -3.5
      vertex 6.07295 16.1468 -3.5
    endloop
  endfacet
  facet normal 0 0 -1
    outer loop
      vertex 59.9344 19.6237 -3.5
      vertex 64 42 -3.5
      vertex 60 19 -3.5
    endloop
  endfacet
  facet normal 0 0 -1
    outer loop
      vertex 59.7406 20.2202 -3.5
      vertex 64 42 -3.5
      vertex 59.9344 19.6237 -3.5
    endloop
  endfacet
  facet normal 0 0 -1
    outer loop
      vertex 59.4271 20.7634 -3.5
      vertex 64 42 -3.5
      vertex 59.7406 20.2202 -3.5
    endloop
  endfacet
  facet normal 0 0 -1
    outer loop
      vertex 59.0074 21.2294 -3.5
      vertex 64 42 -3.5
      vertex 59.4271 20.7634 -3.5
    endloop
  endfacet
  facet normal 0 0 -1
    outer loop
      vertex 58.5 21.5981 -3.5
      vertex 64 42 -3.5
      vertex 59.0074 21.2294 -3.5
    endloop
  endfacet
  facet normal 0 0 -1
    outer loop
      vertex 57.9271 21.8532 -3.5
      vertex 64 42 -3.5
      vertex 58.5 21.5981 -3.5
    endloop
  endfacet
  facet normal 0 0 -1
    outer loop
      vertex 57.3136 21.9836 -3.5
      vertex 64 42 -3.5
      vertex 57.9271 21.8532 -3.5
    endloop
  endfacet
  facet normal 0 0 -1
    outer loop
      vertex 56.6864 21.9836 -3.5
      vertex 64 42 -3.5
      vertex 57.3136 21.9836 -3.5
    endloop
  endfacet
  facet normal 0 0 -1
    outer loop
      vertex 56.0729 21.8532 -3.5
      vertex 64 42 -3.5
      vertex 56.6864 21.9836 -3.5
    endloop
  endfacet
  facet normal 0 0 -1
    outer loop
      vertex 55.5 21.5981 -3.5
      vertex 64 42 -3.5
      vertex 56.0729 21.8532 -3.5
    endloop
  endfacet
  facet normal 0 0 -1
    outer loop
      vertex 22 36 -3.5
      vertex 55.5 21.5981 -3.5
      vertex 54.9926 21.2294 -3.5
    endloop
  endfacet
  facet normal 0 0 -1
    outer loop
      vertex 22 36 -3.5
      vertex 54.9926 21.2294 -3.5
      vertex 54.5729 20.7634 -3.5
    endloop
  endfacet
  facet normal 0 0 -1
    outer loop
      vertex 22 26 -3.5
      vertex 54.5729 20.7634 -3.5
      vertex 54.2594 20.2202 -3.5
    endloop
  endfacet
  facet normal 0 0 -1
    outer loop
      vertex 22 26 -3.5
      vertex 54.0656 19.6237 -3.5
      vertex 54 19 -3.5
    endloop
  endfacet
  facet normal 0 0 -1
    outer loop
      vertex 22 26 -3.5
      vertex 54.2594 20.2202 -3.5
      vertex 54.0656 19.6237 -3.5
    endloop
  endfacet
  facet normal 0 0 -1
    outer loop
      vertex 54.5729 20.7634 -3.5
      vertex 22 26 -3.5
      vertex 22 36 -3.5
    endloop
  endfacet
  facet normal 0 0 -1
    outer loop
      vertex 55.5 21.5981 -3.5
      vertex 22 36 -3.5
      vertex 64 42 -3.5
    endloop
  endfacet
  facet normal 0 0 -1
    outer loop
      vertex 0 42 -3.5
      vertex 22 36 -3.5
      vertex 10 36 -3.5
    endloop
  endfacet
  facet normal 0 0 -1
    outer loop
      vertex 9.42705 20.7634 -3.5
      vertex 10 26 -3.5
      vertex 9.74064 20.2202 -3.5
    endloop
  endfacet
  facet normal 0 0 -1
    outer loop
      vertex 9.00739 21.2294 -3.5
      vertex 10 26 -3.5
      vertex 9.42705 20.7634 -3.5
    endloop
  endfacet
  facet normal 0 0 -1
    outer loop
      vertex 8.5 21.5981 -3.5
      vertex 10 26 -3.5
      vertex 9.00739 21.2294 -3.5
    endloop
  endfacet
  facet normal 0 0 -1
    outer loop
      vertex 7.92705 21.8532 -3.5
      vertex 10 26 -3.5
      vertex 8.5 21.5981 -3.5
    endloop
  endfacet
  facet normal 0 0 -1
    outer loop
      vertex 7.31359 21.9836 -3.5
      vertex 10 26 -3.5
      vertex 7.92705 21.8532 -3.5
    endloop
  endfacet
  facet normal 0 0 -1
    outer loop
      vertex 6.68641 21.9836 -3.5
      vertex 10 26 -3.5
      vertex 7.31359 21.9836 -3.5
    endloop
  endfacet
  facet normal 0 0 -1
    outer loop
      vertex 6.07295 21.8532 -3.5
      vertex 10 26 -3.5
      vertex 6.68641 21.9836 -3.5
    endloop
  endfacet
  facet normal 0 0 -1
    outer loop
      vertex 5.5 21.5981 -3.5
      vertex 10 26 -3.5
      vertex 6.07295 21.8532 -3.5
    endloop
  endfacet
  facet normal -0 0 -1
    outer loop
      vertex 10 26 -3.5
      vertex 5.5 21.5981 -3.5
      vertex 10 36 -3.5
    endloop
  endfacet
  facet normal 0 0 -1
    outer loop
      vertex 0 42 -3.5
      vertex 5.5 21.5981 -3.5
      vertex 4.99261 21.2294 -3.5
    endloop
  endfacet
  facet normal 0 0 -1
    outer loop
      vertex 0 42 -3.5
      vertex 4.99261 21.2294 -3.5
      vertex 4.57295 20.7634 -3.5
    endloop
  endfacet
  facet normal 0 0 -1
    outer loop
      vertex 0 42 -3.5
      vertex 4.57295 20.7634 -3.5
      vertex 4.25936 20.2202 -3.5
    endloop
  endfacet
  facet normal 0 0 -1
    outer loop
      vertex 0 42 -3.5
      vertex 4 19 -3.5
      vertex 0 0 -3.5
    endloop
  endfacet
  facet normal 0 0 -1
    outer loop
      vertex 22 36 -3.5
      vertex 0 42 -3.5
      vertex 64 42 -3.5
    endloop
  endfacet
  facet normal 0 0 -1
    outer loop
      vertex 5.5 21.5981 -3.5
      vertex 0 42 -3.5
      vertex 10 36 -3.5
    endloop
  endfacet
  facet normal 0 0 -1
    outer loop
      vertex 4.06556 19.6237 -3.5
      vertex 0 42 -3.5
      vertex 4.25936 20.2202 -3.5
    endloop
  endfacet
  facet normal 0 0 -1
    outer loop
      vertex 4 19 -3.5
      vertex 0 42 -3.5
      vertex 4.06556 19.6237 -3.5
    endloop
  endfacet
  facet normal 0 0 -1
    outer loop
      vertex 9.93444 19.6237 -3.5
      vertex 22 26 -3.5
      vertex 10 19 -3.5
    endloop
  endfacet
  facet normal 0 0 -1
    outer loop
      vertex 9.74064 20.2202 -3.5
      vertex 22 26 -3.5
      vertex 9.93444 19.6237 -3.5
    endloop
  endfacet
  facet normal -0 0 -1
    outer loop
      vertex 22 26 -3.5
      vertex 9.74064 20.2202 -3.5
      vertex 10 26 -3.5
    endloop
  endfacet
  facet normal -1 0 0
    outer loop
      vertex 0 0 -3.5
      vertex 0 42 0
      vertex 0 42 -3.5
    endloop
  endfacet
  facet normal -1 -0 0
    outer loop
      vertex 0 42 0
      vertex 0 0 -3.5
      vertex 0 0 0
    endloop
  endfacet
  facet normal 0 1 -0
    outer loop
      vertex 64 42 -3.5
      vertex 0 42 0
      vertex 64 42 0
    endloop
  endfacet
  facet normal 0 1 0
    outer loop
      vertex 0 42 0
      vertex 64 42 -3.5
      vertex 0 42 -3.5
    endloop
  endfacet
  facet normal 0 -1 0
    outer loop
      vertex 0 0 -3.5
      vertex 64 0 0
      vertex 0 0 0
    endloop
  endfacet
  facet normal 0 -1 -0
    outer loop
      vertex 64 0 0
      vertex 0 0 -3.5
      vertex 64 0 -3.5
    endloop
  endfacet
  facet normal 1 -0 0
    outer loop
      vertex 25 26 3
      vertex 25 36 0
      vertex 25 36 3
    endloop
  endfacet
  facet normal 1 0 0
    outer loop
      vertex 25 36 0
      vertex 25 26 3
      vertex 25 26 0
    endloop
  endfacet
  facet normal -0 0 1
    outer loop
      vertex 23 36 3
      vertex 25 26 3
      vertex 25 36 3
    endloop
  endfacet
  facet normal 0 0 1
    outer loop
      vertex 25 26 3
      vertex 23 36 3
      vertex 23 26 3
    endloop
  endfacet
  facet normal -1 0 0
    outer loop
      vertex 23 26 0
      vertex 23 36 3
      vertex 23 36 0
    endloop
  endfacet
  facet normal -1 -0 0
    outer loop
      vertex 23 36 3
      vertex 23 26 0
      vertex 23 26 3
    endloop
  endfacet
  facet normal 0 1 -0
    outer loop
      vertex 25 36 0
      vertex 23 36 3
      vertex 25 36 3
    endloop
  endfacet
  facet normal 0 1 0
    outer loop
      vertex 23 36 3
      vertex 25 36 0
      vertex 23 36 0
    endloop
  endfacet
  facet normal 0 -1 0
    outer loop
      vertex 23 26 0
      vertex 25 26 3
      vertex 23 26 3
    endloop
  endfacet
  facet normal 0 -1 -0
    outer loop
      vertex 25 26 3
      vertex 23 26 0
      vertex 25 26 0
    endloop
  endfacet
  facet normal 0 -1 0
    outer loop
      vertex 6.83275 20.5912 -1.151
      vertex 7.16724 20.5912 0
      vertex 6.83275 20.5912 0
    endloop
  endfacet
  facet normal 0 -1 -0
    outer loop
      vertex 7.16724 20.5912 0
      vertex 6.83275 20.5912 -1.151
      vertex 7.16724 20.5912 -1.151
    endloop
  endfacet
  facet normal -0.951045 -0.309052 0
    outer loop
      vertex 8.56504 19.3327 -1.151
      vertex 8.46167 19.6508 0
      vertex 8.46167 19.6508 -1.151
    endloop
  endfacet
  facet normal -0.951045 -0.309052 0
    outer loop
      vertex 8.46167 19.6508 0
      vertex 8.56504 19.3327 -1.151
      vertex 8.56504 19.3327 0
    endloop
  endfacet
  facet normal -0.994524 -0.104504 0
    outer loop
      vertex 8.6 19 -1.151
      vertex 8.56504 19.3327 0
      vertex 8.56504 19.3327 -1.151
    endloop
  endfacet
  facet normal -0.994524 -0.104504 0
    outer loop
      vertex 8.56504 19.3327 0
      vertex 8.6 19 -1.151
      vertex 8.6 19 0
    endloop
  endfacet
  facet normal -0.866049 -0.499959 0
    outer loop
      vertex 8.46167 19.6508 -1.151
      vertex 8.29443 19.9405 0
      vertex 8.29443 19.9405 -1.151
    endloop
  endfacet
  facet normal -0.866049 -0.499959 0
    outer loop
      vertex 8.29443 19.9405 0
      vertex 8.46167 19.6508 -1.151
      vertex 8.46167 19.6508 0
    endloop
  endfacet
  facet normal 0 1 -0
    outer loop
      vertex 7.16724 17.4088 -1.151
      vertex 6.83275 17.4088 0
      vertex 7.16724 17.4088 0
    endloop
  endfacet
  facet normal 0 1 0
    outer loop
      vertex 6.83275 17.4088 0
      vertex 7.16724 17.4088 -1.151
      vertex 6.83275 17.4088 -1.151
    endloop
  endfacet
  facet normal 0.207785 0.978175 -0
    outer loop
      vertex 6.83275 17.4088 -1.151
      vertex 6.50557 17.4783 0
      vertex 6.83275 17.4088 0
    endloop
  endfacet
  facet normal 0.207785 0.978175 0
    outer loop
      vertex 6.50557 17.4783 0
      vertex 6.83275 17.4088 -1.151
      vertex 6.50557 17.4783 -1.151
    endloop
  endfacet
  facet normal 0.951045 0.309052 0
    outer loop
      vertex 5.53833 18.3492 0
      vertex 5.43496 18.6673 -1.151
      vertex 5.43496 18.6673 0
    endloop
  endfacet
  facet normal 0.951045 0.309052 0
    outer loop
      vertex 5.43496 18.6673 -1.151
      vertex 5.53833 18.3492 0
      vertex 5.53833 18.3492 -1.151
    endloop
  endfacet
  facet normal -0.994524 0.104504 0
    outer loop
      vertex 8.56504 18.6673 -1.151
      vertex 8.6 19 0
      vertex 8.6 19 -1.151
    endloop
  endfacet
  facet normal -0.994524 0.104504 0
    outer loop
      vertex 8.6 19 0
      vertex 8.56504 18.6673 -1.151
      vertex 8.56504 18.6673 0
    endloop
  endfacet
  facet normal 0.743041 -0.669246 0
    outer loop
      vertex 5.70557 19.9405 0
      vertex 5.92939 20.189 -1.151
      vertex 5.92939 20.189 0
    endloop
  endfacet
  facet normal 0.743041 -0.669246 0
    outer loop
      vertex 5.92939 20.189 -1.151
      vertex 5.70557 19.9405 0
      vertex 5.70557 19.9405 -1.151
    endloop
  endfacet
  facet normal 0.587766 0.809031 -0
    outer loop
      vertex 6.2 17.6144 -1.151
      vertex 5.92939 17.811 0
      vertex 6.2 17.6144 0
    endloop
  endfacet
  facet normal 0.587766 0.809031 0
    outer loop
      vertex 5.92939 17.811 0
      vertex 6.2 17.6144 -1.151
      vertex 5.92939 17.811 -1.151
    endloop
  endfacet
  facet normal -0.743041 -0.669246 0
    outer loop
      vertex 8.29443 19.9405 -1.151
      vertex 8.07061 20.189 0
      vertex 8.07061 20.189 -1.151
    endloop
  endfacet
  facet normal -0.743041 -0.669246 0
    outer loop
      vertex 8.07061 20.189 0
      vertex 8.29443 19.9405 -1.151
      vertex 8.29443 19.9405 0
    endloop
  endfacet
  facet normal 0.406865 -0.913488 0
    outer loop
      vertex 6.2 20.3856 -1.151
      vertex 6.50557 20.5217 0
      vertex 6.2 20.3856 0
    endloop
  endfacet
  facet normal 0.406865 -0.913488 0
    outer loop
      vertex 6.50557 20.5217 0
      vertex 6.2 20.3856 -1.151
      vertex 6.50557 20.5217 -1.151
    endloop
  endfacet
  facet normal 0.587766 -0.809031 0
    outer loop
      vertex 5.92939 20.189 -1.151
      vertex 6.2 20.3856 0
      vertex 5.92939 20.189 0
    endloop
  endfacet
  facet normal 0.587766 -0.809031 0
    outer loop
      vertex 6.2 20.3856 0
      vertex 5.92939 20.189 -1.151
      vertex 6.2 20.3856 -1.151
    endloop
  endfacet
  facet normal -0.743041 0.669246 0
    outer loop
      vertex 8.07061 17.811 -1.151
      vertex 8.29443 18.0595 0
      vertex 8.29443 18.0595 -1.151
    endloop
  endfacet
  facet normal -0.743041 0.669246 0
    outer loop
      vertex 8.29443 18.0595 0
      vertex 8.07061 17.811 -1.151
      vertex 8.07061 17.811 0
    endloop
  endfacet
  facet normal 0.951045 -0.309052 0
    outer loop
      vertex 5.43496 19.3327 0
      vertex 5.53833 19.6508 -1.151
      vertex 5.53833 19.6508 0
    endloop
  endfacet
  facet normal 0.951045 -0.309052 0
    outer loop
      vertex 5.53833 19.6508 -1.151
      vertex 5.43496 19.3327 0
      vertex 5.43496 19.3327 -1.151
    endloop
  endfacet
  facet normal 0.994524 0.104504 0
    outer loop
      vertex 5.43496 18.6673 0
      vertex 5.4 19 -1.151
      vertex 5.4 19 0
    endloop
  endfacet
  facet normal 0.994524 0.104504 0
    outer loop
      vertex 5.4 19 -1.151
      vertex 5.43496 18.6673 0
      vertex 5.43496 18.6673 -1.151
    endloop
  endfacet
  facet normal 0.743041 0.669246 0
    outer loop
      vertex 5.92939 17.811 0
      vertex 5.70557 18.0595 -1.151
      vertex 5.70557 18.0595 0
    endloop
  endfacet
  facet normal 0.743041 0.669246 0
    outer loop
      vertex 5.70557 18.0595 -1.151
      vertex 5.92939 17.811 0
      vertex 5.92939 17.811 -1.151
    endloop
  endfacet
  facet normal -0.951045 0.309052 0
    outer loop
      vertex 8.46167 18.3492 -1.151
      vertex 8.56504 18.6673 0
      vertex 8.56504 18.6673 -1.151
    endloop
  endfacet
  facet normal -0.951045 0.309052 0
    outer loop
      vertex 8.56504 18.6673 0
      vertex 8.46167 18.3492 -1.151
      vertex 8.46167 18.3492 0
    endloop
  endfacet
  facet normal -0.207779 -0.978176 0
    outer loop
      vertex 7.16724 20.5912 -1.151
      vertex 7.49443 20.5217 0
      vertex 7.16724 20.5912 0
    endloop
  endfacet
  facet normal -0.207779 -0.978176 -0
    outer loop
      vertex 7.49443 20.5217 0
      vertex 7.16724 20.5912 -1.151
      vertex 7.49443 20.5217 -1.151
    endloop
  endfacet
  facet normal -0.866049 0.499959 0
    outer loop
      vertex 8.29443 18.0595 -1.151
      vertex 8.46167 18.3492 0
      vertex 8.46167 18.3492 -1.151
    endloop
  endfacet
  facet normal -0.866049 0.499959 0
    outer loop
      vertex 8.46167 18.3492 0
      vertex 8.29443 18.0595 -1.151
      vertex 8.29443 18.0595 0
    endloop
  endfacet
  facet normal -0.587766 0.809031 0
    outer loop
      vertex 8.07061 17.811 -1.151
      vertex 7.8 17.6144 0
      vertex 8.07061 17.811 0
    endloop
  endfacet
  facet normal -0.587766 0.809031 0
    outer loop
      vertex 7.8 17.6144 0
      vertex 8.07061 17.811 -1.151
      vertex 7.8 17.6144 -1.151
    endloop
  endfacet
  facet normal -0.587766 -0.809031 0
    outer loop
      vertex 7.8 20.3856 -1.151
      vertex 8.07061 20.189 0
      vertex 7.8 20.3856 0
    endloop
  endfacet
  facet normal -0.587766 -0.809031 -0
    outer loop
      vertex 8.07061 20.189 0
      vertex 7.8 20.3856 -1.151
      vertex 8.07061 20.189 -1.151
    endloop
  endfacet
  facet normal -0.406865 -0.913488 0
    outer loop
      vertex 7.49443 20.5217 -1.151
      vertex 7.8 20.3856 0
      vertex 7.49443 20.5217 0
    endloop
  endfacet
  facet normal -0.406865 -0.913488 -0
    outer loop
      vertex 7.8 20.3856 0
      vertex 7.49443 20.5217 -1.151
      vertex 7.8 20.3856 -1.151
    endloop
  endfacet
  facet normal -0.406865 0.913488 0
    outer loop
      vertex 7.8 17.6144 -1.151
      vertex 7.49443 17.4783 0
      vertex 7.8 17.6144 0
    endloop
  endfacet
  facet normal -0.406865 0.913488 0
    outer loop
      vertex 7.49443 17.4783 0
      vertex 7.8 17.6144 -1.151
      vertex 7.49443 17.4783 -1.151
    endloop
  endfacet
  facet normal 0.866049 0.499959 0
    outer loop
      vertex 5.70557 18.0595 0
      vertex 5.53833 18.3492 -1.151
      vertex 5.53833 18.3492 0
    endloop
  endfacet
  facet normal 0.866049 0.499959 0
    outer loop
      vertex 5.53833 18.3492 -1.151
      vertex 5.70557 18.0595 0
      vertex 5.70557 18.0595 -1.151
    endloop
  endfacet
  facet normal -0.207779 0.978176 0
    outer loop
      vertex 7.49443 17.4783 -1.151
      vertex 7.16724 17.4088 0
      vertex 7.49443 17.4783 0
    endloop
  endfacet
  facet normal -0.207779 0.978176 0
    outer loop
      vertex 7.16724 17.4088 0
      vertex 7.49443 17.4783 -1.151
      vertex 7.16724 17.4088 -1.151
    endloop
  endfacet
  facet normal 0.406865 0.913488 -0
    outer loop
      vertex 6.50557 17.4783 -1.151
      vertex 6.2 17.6144 0
      vertex 6.50557 17.4783 0
    endloop
  endfacet
  facet normal 0.406865 0.913488 0
    outer loop
      vertex 6.2 17.6144 0
      vertex 6.50557 17.4783 -1.151
      vertex 6.2 17.6144 -1.151
    endloop
  endfacet
  facet normal 0.994524 -0.104504 0
    outer loop
      vertex 5.4 19 0
      vertex 5.43496 19.3327 -1.151
      vertex 5.43496 19.3327 0
    endloop
  endfacet
  facet normal 0.994524 -0.104504 0
    outer loop
      vertex 5.43496 19.3327 -1.151
      vertex 5.4 19 0
      vertex 5.4 19 -1.151
    endloop
  endfacet
  facet normal 0.207785 -0.978175 0
    outer loop
      vertex 6.50557 20.5217 -1.151
      vertex 6.83275 20.5912 0
      vertex 6.50557 20.5217 0
    endloop
  endfacet
  facet normal 0.207785 -0.978175 0
    outer loop
      vertex 6.83275 20.5912 0
      vertex 6.50557 20.5217 -1.151
      vertex 6.83275 20.5912 -1.151
    endloop
  endfacet
  facet normal 0.866049 -0.499959 0
    outer loop
      vertex 5.53833 19.6508 0
      vertex 5.70557 19.9405 -1.151
      vertex 5.70557 19.9405 0
    endloop
  endfacet
  facet normal 0.866049 -0.499959 0
    outer loop
      vertex 5.70557 19.9405 -1.151
      vertex 5.53833 19.6508 0
      vertex 5.53833 19.6508 -1.151
    endloop
  endfacet
  facet normal -0.951063 -0.308996 0
    outer loop
      vertex 9.93444 19.6237 -3.5
      vertex 9.74064 20.2202 -1.151
      vertex 9.74064 20.2202 -3.5
    endloop
  endfacet
  facet normal -0.951063 -0.308996 0
    outer loop
      vertex 9.74064 20.2202 -1.151
      vertex 9.93444 19.6237 -3.5
      vertex 9.93444 19.6237 -1.151
    endloop
  endfacet
  facet normal -0.994521 -0.104539 0
    outer loop
      vertex 10 19 -3.5
      vertex 9.93444 19.6237 -1.151
      vertex 9.93444 19.6237 -3.5
    endloop
  endfacet
  facet normal -0.994521 -0.104539 0
    outer loop
      vertex 9.93444 19.6237 -1.151
      vertex 10 19 -3.5
      vertex 10 19 -1.151
    endloop
  endfacet
  facet normal -0.866044 -0.499968 0
    outer loop
      vertex 9.74064 20.2202 -3.5
      vertex 9.42705 20.7634 -1.151
      vertex 9.42705 20.7634 -3.5
    endloop
  endfacet
  facet normal -0.866044 -0.499968 0
    outer loop
      vertex 9.42705 20.7634 -1.151
      vertex 9.74064 20.2202 -3.5
      vertex 9.74064 20.2202 -1.151
    endloop
  endfacet
  facet normal 0.951063 -0.308996 0
    outer loop
      vertex 4.06556 19.6237 -1.151
      vertex 4.25936 20.2202 -3.5
      vertex 4.25936 20.2202 -1.151
    endloop
  endfacet
  facet normal 0.951063 -0.308996 0
    outer loop
      vertex 4.25936 20.2202 -3.5
      vertex 4.06556 19.6237 -1.151
      vertex 4.06556 19.6237 -3.5
    endloop
  endfacet
  facet normal -0.406745 0.913542 0
    outer loop
      vertex 8.5 16.4019 -3.5
      vertex 7.92705 16.1468 -1.151
      vertex 8.5 16.4019 -1.151
    endloop
  endfacet
  facet normal -0.406745 0.913542 0
    outer loop
      vertex 7.92705 16.1468 -1.151
      vertex 8.5 16.4019 -3.5
      vertex 7.92705 16.1468 -3.5
    endloop
  endfacet
  facet normal 0.994521 -0.104539 0
    outer loop
      vertex 4 19 -1.151
      vertex 4.06556 19.6237 -3.5
      vertex 4.06556 19.6237 -1.151
    endloop
  endfacet
  facet normal 0.994521 -0.104539 0
    outer loop
      vertex 4.06556 19.6237 -3.5
      vertex 4 19 -1.151
      vertex 4 19 -3.5
    endloop
  endfacet
  facet normal -0.994521 0.104539 0
    outer loop
      vertex 9.93444 18.3763 -3.5
      vertex 10 19 -1.151
      vertex 10 19 -3.5
    endloop
  endfacet
  facet normal -0.994521 0.104539 0
    outer loop
      vertex 10 19 -1.151
      vertex 9.93444 18.3763 -3.5
      vertex 9.93444 18.3763 -1.151
    endloop
  endfacet
  facet normal 0.743088 -0.669194 0
    outer loop
      vertex 4.57295 20.7634 -1.151
      vertex 4.99261 21.2294 -3.5
      vertex 4.99261 21.2294 -1.151
    endloop
  endfacet
  facet normal 0.743088 -0.669194 0
    outer loop
      vertex 4.99261 21.2294 -3.5
      vertex 4.57295 20.7634 -1.151
      vertex 4.57295 20.7634 -3.5
    endloop
  endfacet
  facet normal 0.994521 0.104539 0
    outer loop
      vertex 4.06556 18.3763 -1.151
      vertex 4 19 -3.5
      vertex 4 19 -1.151
    endloop
  endfacet
  facet normal 0.994521 0.104539 0
    outer loop
      vertex 4 19 -3.5
      vertex 4.06556 18.3763 -1.151
      vertex 4.06556 18.3763 -3.5
    endloop
  endfacet
  facet normal -0.951063 0.308996 0
    outer loop
      vertex 9.74064 17.7798 -3.5
      vertex 9.93444 18.3763 -1.151
      vertex 9.93444 18.3763 -3.5
    endloop
  endfacet
  facet normal -0.951063 0.308996 0
    outer loop
      vertex 9.93444 18.3763 -1.151
      vertex 9.74064 17.7798 -3.5
      vertex 9.74064 17.7798 -1.151
    endloop
  endfacet
  facet normal -0.743088 -0.669194 0
    outer loop
      vertex 9.42705 20.7634 -3.5
      vertex 9.00739 21.2294 -1.151
      vertex 9.00739 21.2294 -3.5
    endloop
  endfacet
  facet normal -0.743088 -0.669194 0
    outer loop
      vertex 9.00739 21.2294 -1.151
      vertex 9.42705 20.7634 -3.5
      vertex 9.42705 20.7634 -1.151
    endloop
  endfacet
  facet normal 0.951063 0.308996 0
    outer loop
      vertex 4.25936 17.7798 -1.151
      vertex 4.06556 18.3763 -3.5
      vertex 4.06556 18.3763 -1.151
    endloop
  endfacet
  facet normal 0.951063 0.308996 0
    outer loop
      vertex 4.06556 18.3763 -3.5
      vertex 4.25936 17.7798 -1.151
      vertex 4.25936 17.7798 -3.5
    endloop
  endfacet
  facet normal -0.207919 -0.978146 0
    outer loop
      vertex 7.31359 21.9836 -3.5
      vertex 7.92705 21.8532 -1.151
      vertex 7.31359 21.9836 -1.151
    endloop
  endfacet
  facet normal -0.207919 -0.978146 -0
    outer loop
      vertex 7.92705 21.8532 -1.151
      vertex 7.31359 21.9836 -3.5
      vertex 7.92705 21.8532 -3.5
    endloop
  endfacet
  facet normal 0.406745 0.913542 -0
    outer loop
      vertex 6.07295 16.1468 -3.5
      vertex 5.5 16.4019 -1.151
      vertex 6.07295 16.1468 -1.151
    endloop
  endfacet
  facet normal 0.406745 0.913542 0
    outer loop
      vertex 5.5 16.4019 -1.151
      vertex 6.07295 16.1468 -3.5
      vertex 5.5 16.4019 -3.5
    endloop
  endfacet
  facet normal 0 1 -0
    outer loop
      vertex 7.31359 16.0164 -3.5
      vertex 6.68641 16.0164 -1.151
      vertex 7.31359 16.0164 -1.151
    endloop
  endfacet
  facet normal 0 1 0
    outer loop
      vertex 6.68641 16.0164 -1.151
      vertex 7.31359 16.0164 -3.5
      vertex 6.68641 16.0164 -3.5
    endloop
  endfacet
  facet normal -0.207919 0.978146 0
    outer loop
      vertex 7.92705 16.1468 -3.5
      vertex 7.31359 16.0164 -1.151
      vertex 7.92705 16.1468 -1.151
    endloop
  endfacet
  facet normal -0.207919 0.978146 0
    outer loop
      vertex 7.31359 16.0164 -1.151
      vertex 7.92705 16.1468 -3.5
      vertex 7.31359 16.0164 -3.5
    endloop
  endfacet
  facet normal -0.587847 0.808972 0
    outer loop
      vertex 9.00739 16.7706 -3.5
      vertex 8.5 16.4019 -1.151
      vertex 9.00739 16.7706 -1.151
    endloop
  endfacet
  facet normal -0.587847 0.808972 0
    outer loop
      vertex 8.5 16.4019 -1.151
      vertex 9.00739 16.7706 -3.5
      vertex 8.5 16.4019 -3.5
    endloop
  endfacet
  facet normal 0.207919 -0.978146 0
    outer loop
      vertex 6.07295 21.8532 -3.5
      vertex 6.68641 21.9836 -1.151
      vertex 6.07295 21.8532 -1.151
    endloop
  endfacet
  facet normal 0.207919 -0.978146 0
    outer loop
      vertex 6.68641 21.9836 -1.151
      vertex 6.07295 21.8532 -3.5
      vertex 6.68641 21.9836 -3.5
    endloop
  endfacet
  facet normal 0.866044 0.499968 0
    outer loop
      vertex 4.57295 17.2366 -1.151
      vertex 4.25936 17.7798 -3.5
      vertex 4.25936 17.7798 -1.151
    endloop
  endfacet
  facet normal 0.866044 0.499968 0
    outer loop
      vertex 4.25936 17.7798 -3.5
      vertex 4.57295 17.2366 -1.151
      vertex 4.57295 17.2366 -3.5
    endloop
  endfacet
  facet normal -0.866044 0.499968 0
    outer loop
      vertex 9.42705 17.2366 -3.5
      vertex 9.74064 17.7798 -1.151
      vertex 9.74064 17.7798 -3.5
    endloop
  endfacet
  facet normal -0.866044 0.499968 0
    outer loop
      vertex 9.74064 17.7798 -1.151
      vertex 9.42705 17.2366 -3.5
      vertex 9.42705 17.2366 -1.151
    endloop
  endfacet
  facet normal -0.587847 -0.808972 0
    outer loop
      vertex 8.5 21.5981 -3.5
      vertex 9.00739 21.2294 -1.151
      vertex 8.5 21.5981 -1.151
    endloop
  endfacet
  facet normal -0.587847 -0.808972 -0
    outer loop
      vertex 9.00739 21.2294 -1.151
      vertex 8.5 21.5981 -3.5
      vertex 9.00739 21.2294 -3.5
    endloop
  endfacet
  facet normal 0.406745 -0.913542 0
    outer loop
      vertex 5.5 21.5981 -3.5
      vertex 6.07295 21.8532 -1.151
      vertex 5.5 21.5981 -1.151
    endloop
  endfacet
  facet normal 0.406745 -0.913542 0
    outer loop
      vertex 6.07295 21.8532 -1.151
      vertex 5.5 21.5981 -3.5
      vertex 6.07295 21.8532 -3.5
    endloop
  endfacet
  facet normal 0 -1 0
    outer loop
      vertex 6.68641 21.9836 -3.5
      vertex 7.31359 21.9836 -1.151
      vertex 6.68641 21.9836 -1.151
    endloop
  endfacet
  facet normal 0 -1 -0
    outer loop
      vertex 7.31359 21.9836 -1.151
      vertex 6.68641 21.9836 -3.5
      vertex 7.31359 21.9836 -3.5
    endloop
  endfacet
  facet normal -0.406745 -0.913542 0
    outer loop
      vertex 7.92705 21.8532 -3.5
      vertex 8.5 21.5981 -1.151
      vertex 7.92705 21.8532 -1.151
    endloop
  endfacet
  facet normal -0.406745 -0.913542 -0
    outer loop
      vertex 8.5 21.5981 -1.151
      vertex 7.92705 21.8532 -3.5
      vertex 8.5 21.5981 -3.5
    endloop
  endfacet
  facet normal 0.207919 0.978146 -0
    outer loop
      vertex 6.68641 16.0164 -3.5
      vertex 6.07295 16.1468 -1.151
      vertex 6.68641 16.0164 -1.151
    endloop
  endfacet
  facet normal 0.207919 0.978146 0
    outer loop
      vertex 6.07295 16.1468 -1.151
      vertex 6.68641 16.0164 -3.5
      vertex 6.07295 16.1468 -3.5
    endloop
  endfacet
  facet normal -0.743088 0.669194 0
    outer loop
      vertex 9.00739 16.7706 -3.5
      vertex 9.42705 17.2366 -1.151
      vertex 9.42705 17.2366 -3.5
    endloop
  endfacet
  facet normal -0.743088 0.669194 0
    outer loop
      vertex 9.42705 17.2366 -1.151
      vertex 9.00739 16.7706 -3.5
      vertex 9.00739 16.7706 -1.151
    endloop
  endfacet
  facet normal 0.587847 -0.808972 0
    outer loop
      vertex 4.99261 21.2294 -3.5
      vertex 5.5 21.5981 -1.151
      vertex 4.99261 21.2294 -1.151
    endloop
  endfacet
  facet normal 0.587847 -0.808972 0
    outer loop
      vertex 5.5 21.5981 -1.151
      vertex 4.99261 21.2294 -3.5
      vertex 5.5 21.5981 -3.5
    endloop
  endfacet
  facet normal 0.743088 0.669194 0
    outer loop
      vertex 4.99261 16.7706 -1.151
      vertex 4.57295 17.2366 -3.5
      vertex 4.57295 17.2366 -1.151
    endloop
  endfacet
  facet normal 0.743088 0.669194 0
    outer loop
      vertex 4.57295 17.2366 -3.5
      vertex 4.99261 16.7706 -1.151
      vertex 4.99261 16.7706 -3.5
    endloop
  endfacet
  facet normal 0.587847 0.808972 -0
    outer loop
      vertex 5.5 16.4019 -3.5
      vertex 4.99261 16.7706 -1.151
      vertex 5.5 16.4019 -1.151
    endloop
  endfacet
  facet normal 0.587847 0.808972 0
    outer loop
      vertex 4.99261 16.7706 -1.151
      vertex 5.5 16.4019 -3.5
      vertex 4.99261 16.7706 -3.5
    endloop
  endfacet
  facet normal 0 0 -1
    outer loop
      vertex 8.6 19 -1.151
      vertex 10 19 -1.151
      vertex 9.93444 18.3763 -1.151
    endloop
  endfacet
  facet normal 0 0 -1
    outer loop
      vertex 8.56504 18.6673 -1.151
      vertex 9.93444 18.3763 -1.151
      vertex 9.74064 17.7798 -1.151
    endloop
  endfacet
  facet normal 0 0 -1
    outer loop
      vertex 10 19 -1.151
      vertex 8.6 19 -1.151
      vertex 9.93444 19.6237 -1.151
    endloop
  endfacet
  facet normal 0 0 -1
    outer loop
      vertex 8.46167 18.3492 -1.151
      vertex 9.74064 17.7798 -1.151
      vertex 9.42705 17.2366 -1.151
    endloop
  endfacet
  facet normal 0 0 -1
    outer loop
      vertex 8.56504 19.3327 -1.151
      vertex 9.93444 19.6237 -1.151
      vertex 8.6 19 -1.151
    endloop
  endfacet
  facet normal 0 0 -1
    outer loop
      vertex 8.29443 18.0595 -1.151
      vertex 9.42705 17.2366 -1.151
      vertex 9.00739 16.7706 -1.151
    endloop
  endfacet
  facet normal -0 0 -1
    outer loop
      vertex 9.93444 19.6237 -1.151
      vertex 8.56504 19.3327 -1.151
      vertex 9.74064 20.2202 -1.151
    endloop
  endfacet
  facet normal 0 0 -1
    outer loop
      vertex 8.46167 19.6508 -1.151
      vertex 9.74064 20.2202 -1.151
      vertex 8.56504 19.3327 -1.151
    endloop
  endfacet
  facet normal 0 0 -1
    outer loop
      vertex 9.93444 18.3763 -1.151
      vertex 8.56504 18.6673 -1.151
      vertex 8.6 19 -1.151
    endloop
  endfacet
  facet normal 0 0 -1
    outer loop
      vertex 8.07061 17.811 -1.151
      vertex 9.00739 16.7706 -1.151
      vertex 8.5 16.4019 -1.151
    endloop
  endfacet
  facet normal 0 0 -1
    outer loop
      vertex 9.74064 17.7798 -1.151
      vertex 8.46167 18.3492 -1.151
      vertex 8.56504 18.6673 -1.151
    endloop
  endfacet
  facet normal 0 0 -1
    outer loop
      vertex 9.42705 17.2366 -1.151
      vertex 8.29443 18.0595 -1.151
      vertex 8.46167 18.3492 -1.151
    endloop
  endfacet
  facet normal 0 0 -1
    outer loop
      vertex 9.00739 16.7706 -1.151
      vertex 8.07061 17.811 -1.151
      vertex 8.29443 18.0595 -1.151
    endloop
  endfacet
  facet normal 0 0 -1
    outer loop
      vertex 7.8 17.6144 -1.151
      vertex 8.5 16.4019 -1.151
      vertex 7.92705 16.1468 -1.151
    endloop
  endfacet
  facet normal 0 0 -1
    outer loop
      vertex 8.5 16.4019 -1.151
      vertex 7.8 17.6144 -1.151
      vertex 8.07061 17.811 -1.151
    endloop
  endfacet
  facet normal 0 0 -1
    outer loop
      vertex 7.92705 16.1468 -1.151
      vertex 7.49443 17.4783 -1.151
      vertex 7.8 17.6144 -1.151
    endloop
  endfacet
  facet normal 0 0 -1
    outer loop
      vertex 7.31359 16.0164 -1.151
      vertex 7.49443 17.4783 -1.151
      vertex 7.92705 16.1468 -1.151
    endloop
  endfacet
  facet normal 0 0 -1
    outer loop
      vertex 7.31359 16.0164 -1.151
      vertex 7.16724 17.4088 -1.151
      vertex 7.49443 17.4783 -1.151
    endloop
  endfacet
  facet normal 0 0 -1
    outer loop
      vertex 7.31359 16.0164 -1.151
      vertex 6.83275 17.4088 -1.151
      vertex 7.16724 17.4088 -1.151
    endloop
  endfacet
  facet normal 0 0 -1
    outer loop
      vertex 6.68641 16.0164 -1.151
      vertex 6.83275 17.4088 -1.151
      vertex 7.31359 16.0164 -1.151
    endloop
  endfacet
  facet normal 0 0 -1
    outer loop
      vertex 6.68641 16.0164 -1.151
      vertex 6.50557 17.4783 -1.151
      vertex 6.83275 17.4088 -1.151
    endloop
  endfacet
  facet normal 0 0 -1
    outer loop
      vertex 6.07295 16.1468 -1.151
      vertex 6.50557 17.4783 -1.151
      vertex 6.68641 16.0164 -1.151
    endloop
  endfacet
  facet normal -0 0 -1
    outer loop
      vertex 6.50557 17.4783 -1.151
      vertex 6.07295 16.1468 -1.151
      vertex 6.2 17.6144 -1.151
    endloop
  endfacet
  facet normal 0 0 -1
    outer loop
      vertex 5.5 16.4019 -1.151
      vertex 6.2 17.6144 -1.151
      vertex 6.07295 16.1468 -1.151
    endloop
  endfacet
  facet normal -0 0 -1
    outer loop
      vertex 6.2 17.6144 -1.151
      vertex 5.5 16.4019 -1.151
      vertex 5.92939 17.811 -1.151
    endloop
  endfacet
  facet normal 0 0 -1
    outer loop
      vertex 4.99261 16.7706 -1.151
      vertex 5.92939 17.811 -1.151
      vertex 5.5 16.4019 -1.151
    endloop
  endfacet
  facet normal -0 0 -1
    outer loop
      vertex 5.92939 17.811 -1.151
      vertex 4.99261 16.7706 -1.151
      vertex 5.70557 18.0595 -1.151
    endloop
  endfacet
  facet normal 0 0 -1
    outer loop
      vertex 4.57295 17.2366 -1.151
      vertex 5.70557 18.0595 -1.151
      vertex 4.99261 16.7706 -1.151
    endloop
  endfacet
  facet normal -0 0 -1
    outer loop
      vertex 5.70557 18.0595 -1.151
      vertex 4.57295 17.2366 -1.151
      vertex 5.53833 18.3492 -1.151
    endloop
  endfacet
  facet normal 0 0 -1
    outer loop
      vertex 4.25936 17.7798 -1.151
      vertex 5.53833 18.3492 -1.151
      vertex 4.57295 17.2366 -1.151
    endloop
  endfacet
  facet normal -0 0 -1
    outer loop
      vertex 9.74064 20.2202 -1.151
      vertex 8.46167 19.6508 -1.151
      vertex 9.42705 20.7634 -1.151
    endloop
  endfacet
  facet normal 0 0 -1
    outer loop
      vertex 8.29443 19.9405 -1.151
      vertex 9.42705 20.7634 -1.151
      vertex 8.46167 19.6508 -1.151
    endloop
  endfacet
  facet normal -0 0 -1
    outer loop
      vertex 9.42705 20.7634 -1.151
      vertex 8.29443 19.9405 -1.151
      vertex 9.00739 21.2294 -1.151
    endloop
  endfacet
  facet normal 0 0 -1
    outer loop
      vertex 8.07061 20.189 -1.151
      vertex 9.00739 21.2294 -1.151
      vertex 8.29443 19.9405 -1.151
    endloop
  endfacet
  facet normal -0 0 -1
    outer loop
      vertex 9.00739 21.2294 -1.151
      vertex 8.07061 20.189 -1.151
      vertex 8.5 21.5981 -1.151
    endloop
  endfacet
  facet normal 0 0 -1
    outer loop
      vertex 7.8 20.3856 -1.151
      vertex 8.5 21.5981 -1.151
      vertex 8.07061 20.189 -1.151
    endloop
  endfacet
  facet normal -0 0 -1
    outer loop
      vertex 8.5 21.5981 -1.151
      vertex 7.8 20.3856 -1.151
      vertex 7.92705 21.8532 -1.151
    endloop
  endfacet
  facet normal 0 0 -1
    outer loop
      vertex 7.49443 20.5217 -1.151
      vertex 7.92705 21.8532 -1.151
      vertex 7.8 20.3856 -1.151
    endloop
  endfacet
  facet normal 0 0 -1
    outer loop
      vertex 7.49443 20.5217 -1.151
      vertex 7.31359 21.9836 -1.151
      vertex 7.92705 21.8532 -1.151
    endloop
  endfacet
  facet normal 0 0 -1
    outer loop
      vertex 7.16724 20.5912 -1.151
      vertex 7.31359 21.9836 -1.151
      vertex 7.49443 20.5217 -1.151
    endloop
  endfacet
  facet normal 0 0 -1
    outer loop
      vertex 6.83275 20.5912 -1.151
      vertex 7.31359 21.9836 -1.151
      vertex 7.16724 20.5912 -1.151
    endloop
  endfacet
  facet normal 0 0 -1
    outer loop
      vertex 6.83275 20.5912 -1.151
      vertex 6.68641 21.9836 -1.151
      vertex 7.31359 21.9836 -1.151
    endloop
  endfacet
  facet normal 0 0 -1
    outer loop
      vertex 6.50557 20.5217 -1.151
      vertex 6.68641 21.9836 -1.151
      vertex 6.83275 20.5912 -1.151
    endloop
  endfacet
  facet normal 0 0 -1
    outer loop
      vertex 6.07295 21.8532 -1.151
      vertex 6.50557 20.5217 -1.151
      vertex 6.2 20.3856 -1.151
    endloop
  endfacet
  facet normal 0 0 -1
    outer loop
      vertex 6.50557 20.5217 -1.151
      vertex 6.07295 21.8532 -1.151
      vertex 6.68641 21.9836 -1.151
    endloop
  endfacet
  facet normal 0 0 -1
    outer loop
      vertex 5.5 21.5981 -1.151
      vertex 6.2 20.3856 -1.151
      vertex 5.92939 20.189 -1.151
    endloop
  endfacet
  facet normal 0 0 -1
    outer loop
      vertex 4.99261 21.2294 -1.151
      vertex 5.92939 20.189 -1.151
      vertex 5.70557 19.9405 -1.151
    endloop
  endfacet
  facet normal 0 0 -1
    outer loop
      vertex 4.57295 20.7634 -1.151
      vertex 5.70557 19.9405 -1.151
      vertex 5.53833 19.6508 -1.151
    endloop
  endfacet
  facet normal 0 0 -1
    outer loop
      vertex 6.2 20.3856 -1.151
      vertex 5.5 21.5981 -1.151
      vertex 6.07295 21.8532 -1.151
    endloop
  endfacet
  facet normal 0 0 -1
    outer loop
      vertex 4.25936 20.2202 -1.151
      vertex 5.53833 19.6508 -1.151
      vertex 5.43496 19.3327 -1.151
    endloop
  endfacet
  facet normal 0 0 -1
    outer loop
      vertex 4.06556 19.6237 -1.151
      vertex 5.43496 19.3327 -1.151
      vertex 5.4 19 -1.151
    endloop
  endfacet
  facet normal -0 0 -1
    outer loop
      vertex 5.53833 18.3492 -1.151
      vertex 4.25936 17.7798 -1.151
      vertex 5.43496 18.6673 -1.151
    endloop
  endfacet
  facet normal 0 0 -1
    outer loop
      vertex 5.92939 20.189 -1.151
      vertex 4.99261 21.2294 -1.151
      vertex 5.5 21.5981 -1.151
    endloop
  endfacet
  facet normal 0 0 -1
    outer loop
      vertex 4.06556 18.3763 -1.151
      vertex 5.43496 18.6673 -1.151
      vertex 4.25936 17.7798 -1.151
    endloop
  endfacet
  facet normal 0 0 -1
    outer loop
      vertex 5.70557 19.9405 -1.151
      vertex 4.57295 20.7634 -1.151
      vertex 4.99261 21.2294 -1.151
    endloop
  endfacet
  facet normal -0 0 -1
    outer loop
      vertex 5.43496 18.6673 -1.151
      vertex 4.06556 18.3763 -1.151
      vertex 5.4 19 -1.151
    endloop
  endfacet
  facet normal 0 0 -1
    outer loop
      vertex 5.53833 19.6508 -1.151
      vertex 4.25936 20.2202 -1.151
      vertex 4.57295 20.7634 -1.151
    endloop
  endfacet
  facet normal 0 0 -1
    outer loop
      vertex 4 19 -1.151
      vertex 5.4 19 -1.151
      vertex 4.06556 18.3763 -1.151
    endloop
  endfacet
  facet normal 0 0 -1
    outer loop
      vertex 5.43496 19.3327 -1.151
      vertex 4.06556 19.6237 -1.151
      vertex 4.25936 20.2202 -1.151
    endloop
  endfacet
  facet normal 0 0 -1
    outer loop
      vertex 5.4 19 -1.151
      vertex 4 19 -1.151
      vertex 4.06556 19.6237 -1.151
    endloop
  endfacet
  facet normal 0.866044 -0.499968 0
    outer loop
      vertex 4.25936 20.2202 -1.151
      vertex 4.57295 20.7634 -3.5
      vertex 4.57295 20.7634 -1.151
    endloop
  endfacet
  facet normal 0.866044 -0.499968 0
    outer loop
      vertex 4.57295 20.7634 -3.5
      vertex 4.25936 20.2202 -1.151
      vertex 4.25936 20.2202 -3.5
    endloop
  endfacet
  facet normal 0 1 -0
    outer loop
      vertex 57.1672 17.4088 -1.151
      vertex 56.8328 17.4088 0
      vertex 57.1672 17.4088 0
    endloop
  endfacet
  facet normal 0 1 0
    outer loop
      vertex 56.8328 17.4088 0
      vertex 57.1672 17.4088 -1.151
      vertex 56.8328 17.4088 -1.151
    endloop
  endfacet
  facet normal 0.951107 0.308863 0
    outer loop
      vertex 55.5383 18.3492 0
      vertex 55.435 18.6673 -1.151
      vertex 55.435 18.6673 0
    endloop
  endfacet
  facet normal 0.951107 0.308863 0
    outer loop
      vertex 55.435 18.6673 -1.151
      vertex 55.5383 18.3492 0
      vertex 55.5383 18.3492 -1.151
    endloop
  endfacet
  facet normal 0.994512 0.104623 0
    outer loop
      vertex 55.435 18.6673 0
      vertex 55.4 19 -1.151
      vertex 55.4 19 0
    endloop
  endfacet
  facet normal 0.994512 0.104623 0
    outer loop
      vertex 55.4 19 -1.151
      vertex 55.435 18.6673 0
      vertex 55.435 18.6673 -1.151
    endloop
  endfacet
  facet normal 0.865972 0.500093 0
    outer loop
      vertex 55.7056 18.0595 0
      vertex 55.5383 18.3492 -1.151
      vertex 55.5383 18.3492 0
    endloop
  endfacet
  facet normal 0.865972 0.500093 0
    outer loop
      vertex 55.5383 18.3492 -1.151
      vertex 55.7056 18.0595 0
      vertex 55.7056 18.0595 -1.151
    endloop
  endfacet
  facet normal 0 -1 0
    outer loop
      vertex 56.8328 20.5912 -1.151
      vertex 57.1672 20.5912 0
      vertex 56.8328 20.5912 0
    endloop
  endfacet
  facet normal 0 -1 -0
    outer loop
      vertex 57.1672 20.5912 0
      vertex 56.8328 20.5912 -1.151
      vertex 57.1672 20.5912 -1.151
    endloop
  endfacet
  facet normal -0.207773 -0.978177 0
    outer loop
      vertex 57.1672 20.5912 -1.151
      vertex 57.4944 20.5217 0
      vertex 57.1672 20.5912 0
    endloop
  endfacet
  facet normal -0.207773 -0.978177 -0
    outer loop
      vertex 57.4944 20.5217 0
      vertex 57.1672 20.5912 -1.151
      vertex 57.4944 20.5217 -1.151
    endloop
  endfacet
  facet normal -0.951107 -0.308863 0
    outer loop
      vertex 58.565 19.3327 -1.151
      vertex 58.4617 19.6508 0
      vertex 58.4617 19.6508 -1.151
    endloop
  endfacet
  facet normal -0.951107 -0.308863 0
    outer loop
      vertex 58.4617 19.6508 0
      vertex 58.565 19.3327 -1.151
      vertex 58.565 19.3327 0
    endloop
  endfacet
  facet normal 0.994512 -0.104623 0
    outer loop
      vertex 55.4 19 0
      vertex 55.435 19.3327 -1.151
      vertex 55.435 19.3327 0
    endloop
  endfacet
  facet normal 0.994512 -0.104623 0
    outer loop
      vertex 55.435 19.3327 -1.151
      vertex 55.4 19 0
      vertex 55.4 19 -1.151
    endloop
  endfacet
  facet normal -0.743071 0.669213 0
    outer loop
      vertex 58.0706 17.811 -1.151
      vertex 58.2944 18.0595 0
      vertex 58.2944 18.0595 -1.151
    endloop
  endfacet
  facet normal -0.743071 0.669213 0
    outer loop
      vertex 58.2944 18.0595 0
      vertex 58.0706 17.811 -1.151
      vertex 58.0706 17.811 0
    endloop
  endfacet
  facet normal -0.587781 -0.80902 0
    outer loop
      vertex 57.8 20.3856 -1.151
      vertex 58.0706 20.189 0
      vertex 57.8 20.3856 0
    endloop
  endfacet
  facet normal -0.587781 -0.80902 -0
    outer loop
      vertex 58.0706 20.189 0
      vertex 57.8 20.3856 -1.151
      vertex 58.0706 20.189 -1.151
    endloop
  endfacet
  facet normal 0.743071 0.669213 0
    outer loop
      vertex 55.9294 17.811 0
      vertex 55.7056 18.0595 -1.151
      vertex 55.7056 18.0595 0
    endloop
  endfacet
  facet normal 0.743071 0.669213 0
    outer loop
      vertex 55.7056 18.0595 -1.151
      vertex 55.9294 17.811 0
      vertex 55.9294 17.811 -1.151
    endloop
  endfacet
  facet normal -0.406832 0.913503 0
    outer loop
      vertex 57.8 17.6144 -1.151
      vertex 57.4944 17.4783 0
      vertex 57.8 17.6144 0
    endloop
  endfacet
  facet normal -0.406832 0.913503 0
    outer loop
      vertex 57.4944 17.4783 0
      vertex 57.8 17.6144 -1.151
      vertex 57.4944 17.4783 -1.151
    endloop
  endfacet
  facet normal -0.587781 0.80902 0
    outer loop
      vertex 58.0706 17.811 -1.151
      vertex 57.8 17.6144 0
      vertex 58.0706 17.811 0
    endloop
  endfacet
  facet normal -0.587781 0.80902 0
    outer loop
      vertex 57.8 17.6144 0
      vertex 58.0706 17.811 -1.151
      vertex 57.8 17.6144 -1.151
    endloop
  endfacet
  facet normal 0.743071 -0.669213 0
    outer loop
      vertex 55.7056 19.9405 0
      vertex 55.9294 20.189 -1.151
      vertex 55.9294 20.189 0
    endloop
  endfacet
  facet normal 0.743071 -0.669213 0
    outer loop
      vertex 55.9294 20.189 -1.151
      vertex 55.7056 19.9405 0
      vertex 55.7056 19.9405 -1.151
    endloop
  endfacet
  facet normal -0.951107 0.308863 0
    outer loop
      vertex 58.4617 18.3492 -1.151
      vertex 58.565 18.6673 0
      vertex 58.565 18.6673 -1.151
    endloop
  endfacet
  facet normal -0.951107 0.308863 0
    outer loop
      vertex 58.565 18.6673 0
      vertex 58.4617 18.3492 -1.151
      vertex 58.4617 18.3492 0
    endloop
  endfacet
  facet normal -0.994512 -0.104623 0
    outer loop
      vertex 58.6 19 -1.151
      vertex 58.565 19.3327 0
      vertex 58.565 19.3327 -1.151
    endloop
  endfacet
  facet normal -0.994512 -0.104623 0
    outer loop
      vertex 58.565 19.3327 0
      vertex 58.6 19 -1.151
      vertex 58.6 19 0
    endloop
  endfacet
  facet normal -0.743071 -0.669213 0
    outer loop
      vertex 58.2944 19.9405 -1.151
      vertex 58.0706 20.189 0
      vertex 58.0706 20.189 -1.151
    endloop
  endfacet
  facet normal -0.743071 -0.669213 0
    outer loop
      vertex 58.0706 20.189 0
      vertex 58.2944 19.9405 -1.151
      vertex 58.2944 19.9405 0
    endloop
  endfacet
  facet normal 0.951107 -0.308863 0
    outer loop
      vertex 55.435 19.3327 0
      vertex 55.5383 19.6508 -1.151
      vertex 55.5383 19.6508 0
    endloop
  endfacet
  facet normal 0.951107 -0.308863 0
    outer loop
      vertex 55.5383 19.6508 -1.151
      vertex 55.435 19.3327 0
      vertex 55.435 19.3327 -1.151
    endloop
  endfacet
  facet normal 0.207773 0.978177 -0
    outer loop
      vertex 56.8328 17.4088 -1.151
      vertex 56.5056 17.4783 0
      vertex 56.8328 17.4088 0
    endloop
  endfacet
  facet normal 0.207773 0.978177 0
    outer loop
      vertex 56.5056 17.4783 0
      vertex 56.8328 17.4088 -1.151
      vertex 56.5056 17.4783 -1.151
    endloop
  endfacet
  facet normal 0.865972 -0.500093 0
    outer loop
      vertex 55.5383 19.6508 0
      vertex 55.7056 19.9405 -1.151
      vertex 55.7056 19.9405 0
    endloop
  endfacet
  facet normal 0.865972 -0.500093 0
    outer loop
      vertex 55.7056 19.9405 -1.151
      vertex 55.5383 19.6508 0
      vertex 55.5383 19.6508 -1.151
    endloop
  endfacet
  facet normal 0.587781 -0.80902 0
    outer loop
      vertex 55.9294 20.189 -1.151
      vertex 56.2 20.3856 0
      vertex 55.9294 20.189 0
    endloop
  endfacet
  facet normal 0.587781 -0.80902 0
    outer loop
      vertex 56.2 20.3856 0
      vertex 55.9294 20.189 -1.151
      vertex 56.2 20.3856 -1.151
    endloop
  endfacet
  facet normal 0.587781 0.80902 -0
    outer loop
      vertex 56.2 17.6144 -1.151
      vertex 55.9294 17.811 0
      vertex 56.2 17.6144 0
    endloop
  endfacet
  facet normal 0.587781 0.80902 0
    outer loop
      vertex 55.9294 17.811 0
      vertex 56.2 17.6144 -1.151
      vertex 55.9294 17.811 -1.151
    endloop
  endfacet
  facet normal 0.406832 0.913503 -0
    outer loop
      vertex 56.5056 17.4783 -1.151
      vertex 56.2 17.6144 0
      vertex 56.5056 17.4783 0
    endloop
  endfacet
  facet normal 0.406832 0.913503 0
    outer loop
      vertex 56.2 17.6144 0
      vertex 56.5056 17.4783 -1.151
      vertex 56.2 17.6144 -1.151
    endloop
  endfacet
  facet normal 0.406832 -0.913503 0
    outer loop
      vertex 56.2 20.3856 -1.151
      vertex 56.5056 20.5217 0
      vertex 56.2 20.3856 0
    endloop
  endfacet
  facet normal 0.406832 -0.913503 0
    outer loop
      vertex 56.5056 20.5217 0
      vertex 56.2 20.3856 -1.151
      vertex 56.5056 20.5217 -1.151
    endloop
  endfacet
  facet normal -0.865972 -0.500093 0
    outer loop
      vertex 58.4617 19.6508 -1.151
      vertex 58.2944 19.9405 0
      vertex 58.2944 19.9405 -1.151
    endloop
  endfacet
  facet normal -0.865972 -0.500093 0
    outer loop
      vertex 58.2944 19.9405 0
      vertex 58.4617 19.6508 -1.151
      vertex 58.4617 19.6508 0
    endloop
  endfacet
  facet normal 0.207773 -0.978177 0
    outer loop
      vertex 56.5056 20.5217 -1.151
      vertex 56.8328 20.5912 0
      vertex 56.5056 20.5217 0
    endloop
  endfacet
  facet normal 0.207773 -0.978177 0
    outer loop
      vertex 56.8328 20.5912 0
      vertex 56.5056 20.5217 -1.151
      vertex 56.8328 20.5912 -1.151
    endloop
  endfacet
  facet normal -0.406832 -0.913503 0
    outer loop
      vertex 57.4944 20.5217 -1.151
      vertex 57.8 20.3856 0
      vertex 57.4944 20.5217 0
    endloop
  endfacet
  facet normal -0.406832 -0.913503 -0
    outer loop
      vertex 57.8 20.3856 0
      vertex 57.4944 20.5217 -1.151
      vertex 57.8 20.3856 -1.151
    endloop
  endfacet
  facet normal -0.994512 0.104623 0
    outer loop
      vertex 58.565 18.6673 -1.151
      vertex 58.6 19 0
      vertex 58.6 19 -1.151
    endloop
  endfacet
  facet normal -0.994512 0.104623 0
    outer loop
      vertex 58.6 19 0
      vertex 58.565 18.6673 -1.151
      vertex 58.565 18.6673 0
    endloop
  endfacet
  facet normal -0.207773 0.978177 0
    outer loop
      vertex 57.4944 17.4783 -1.151
      vertex 57.1672 17.4088 0
      vertex 57.4944 17.4783 0
    endloop
  endfacet
  facet normal -0.207773 0.978177 0
    outer loop
      vertex 57.1672 17.4088 0
      vertex 57.4944 17.4783 -1.151
      vertex 57.1672 17.4088 -1.151
    endloop
  endfacet
  facet normal -0.865972 0.500093 0
    outer loop
      vertex 58.2944 18.0595 -1.151
      vertex 58.4617 18.3492 0
      vertex 58.4617 18.3492 -1.151
    endloop
  endfacet
  facet normal -0.865972 0.500093 0
    outer loop
      vertex 58.4617 18.3492 0
      vertex 58.2944 18.0595 -1.151
      vertex 58.2944 18.0595 0
    endloop
  endfacet
  facet normal 0.951063 0.308996 0
    outer loop
      vertex 54.2594 17.7798 -1.151
      vertex 54.0656 18.3763 -3.5
      vertex 54.0656 18.3763 -1.151
    endloop
  endfacet
  facet normal 0.951063 0.308996 0
    outer loop
      vertex 54.0656 18.3763 -3.5
      vertex 54.2594 17.7798 -1.151
      vertex 54.2594 17.7798 -3.5
    endloop
  endfacet
  facet normal 0.994514 0.104602 0
    outer loop
      vertex 54.0656 18.3763 -1.151
      vertex 54 19 -3.5
      vertex 54 19 -1.151
    endloop
  endfacet
  facet normal 0.994514 0.104602 0
    outer loop
      vertex 54 19 -3.5
      vertex 54.0656 18.3763 -1.151
      vertex 54.0656 18.3763 -3.5
    endloop
  endfacet
  facet normal 0.866106 0.49986 0
    outer loop
      vertex 54.5729 17.2366 -1.151
      vertex 54.2594 17.7798 -3.5
      vertex 54.2594 17.7798 -1.151
    endloop
  endfacet
  facet normal 0.866106 0.49986 0
    outer loop
      vertex 54.2594 17.7798 -3.5
      vertex 54.5729 17.2366 -1.151
      vertex 54.5729 17.2366 -3.5
    endloop
  endfacet
  facet normal -0.951063 0.308996 0
    outer loop
      vertex 59.7406 17.7798 -3.5
      vertex 59.9344 18.3763 -1.151
      vertex 59.9344 18.3763 -3.5
    endloop
  endfacet
  facet normal -0.951063 0.308996 0
    outer loop
      vertex 59.9344 18.3763 -1.151
      vertex 59.7406 17.7798 -3.5
      vertex 59.7406 17.7798 -1.151
    endloop
  endfacet
  facet normal 0.406775 -0.913529 0
    outer loop
      vertex 55.5 21.5981 -3.5
      vertex 56.0729 21.8532 -1.151
      vertex 55.5 21.5981 -1.151
    endloop
  endfacet
  facet normal 0.406775 -0.913529 0
    outer loop
      vertex 56.0729 21.8532 -1.151
      vertex 55.5 21.5981 -3.5
      vertex 56.0729 21.8532 -3.5
    endloop
  endfacet
  facet normal -0.994514 0.104602 0
    outer loop
      vertex 59.9344 18.3763 -3.5
      vertex 60 19 -1.151
      vertex 60 19 -3.5
    endloop
  endfacet
  facet normal -0.994514 0.104602 0
    outer loop
      vertex 60 19 -1.151
      vertex 59.9344 18.3763 -3.5
      vertex 59.9344 18.3763 -1.151
    endloop
  endfacet
  facet normal 0.994514 -0.104602 0
    outer loop
      vertex 54 19 -1.151
      vertex 54.0656 19.6237 -3.5
      vertex 54.0656 19.6237 -1.151
    endloop
  endfacet
  facet normal 0.994514 -0.104602 0
    outer loop
      vertex 54.0656 19.6237 -3.5
      vertex 54 19 -1.151
      vertex 54 19 -3.5
    endloop
  endfacet
  facet normal -0.743056 0.669229 0
    outer loop
      vertex 59.0074 16.7706 -3.5
      vertex 59.4271 17.2366 -1.151
      vertex 59.4271 17.2366 -3.5
    endloop
  endfacet
  facet normal -0.743056 0.669229 0
    outer loop
      vertex 59.4271 17.2366 -1.151
      vertex 59.0074 16.7706 -3.5
      vertex 59.0074 16.7706 -1.151
    endloop
  endfacet
  facet normal -0.994514 -0.104602 0
    outer loop
      vertex 60 19 -3.5
      vertex 59.9344 19.6237 -1.151
      vertex 59.9344 19.6237 -3.5
    endloop
  endfacet
  facet normal -0.994514 -0.104602 0
    outer loop
      vertex 59.9344 19.6237 -1.151
      vertex 60 19 -3.5
      vertex 60 19 -1.151
    endloop
  endfacet
  facet normal 0.951063 -0.308996 0
    outer loop
      vertex 54.0656 19.6237 -1.151
      vertex 54.2594 20.2202 -3.5
      vertex 54.2594 20.2202 -1.151
    endloop
  endfacet
  facet normal 0.951063 -0.308996 0
    outer loop
      vertex 54.2594 20.2202 -3.5
      vertex 54.0656 19.6237 -1.151
      vertex 54.0656 19.6237 -3.5
    endloop
  endfacet
  facet normal 0.743056 0.669229 0
    outer loop
      vertex 54.9926 16.7706 -1.151
      vertex 54.5729 17.2366 -3.5
      vertex 54.5729 17.2366 -1.151
    endloop
  endfacet
  facet normal 0.743056 0.669229 0
    outer loop
      vertex 54.5729 17.2366 -3.5
      vertex 54.9926 16.7706 -1.151
      vertex 54.9926 16.7706 -3.5
    endloop
  endfacet
  facet normal -0.951063 -0.308996 0
    outer loop
      vertex 59.9344 19.6237 -3.5
      vertex 59.7406 20.2202 -1.151
      vertex 59.7406 20.2202 -3.5
    endloop
  endfacet
  facet normal -0.951063 -0.308996 0
    outer loop
      vertex 59.7406 20.2202 -1.151
      vertex 59.9344 19.6237 -3.5
      vertex 59.9344 19.6237 -1.151
    endloop
  endfacet
  facet normal 0.207906 0.978149 -0
    outer loop
      vertex 56.6864 16.0164 -3.5
      vertex 56.0729 16.1468 -1.151
      vertex 56.6864 16.0164 -1.151
    endloop
  endfacet
  facet normal 0.207906 0.978149 0
    outer loop
      vertex 56.0729 16.1468 -1.151
      vertex 56.6864 16.0164 -3.5
      vertex 56.0729 16.1468 -3.5
    endloop
  endfacet
  facet normal -0.406775 -0.913529 0
    outer loop
      vertex 57.9271 21.8532 -3.5
      vertex 58.5 21.5981 -1.151
      vertex 57.9271 21.8532 -1.151
    endloop
  endfacet
  facet normal -0.406775 -0.913529 -0
    outer loop
      vertex 58.5 21.5981 -1.151
      vertex 57.9271 21.8532 -3.5
      vertex 58.5 21.5981 -3.5
    endloop
  endfacet
  facet normal 0 -1 0
    outer loop
      vertex 56.6864 21.9836 -3.5
      vertex 57.3136 21.9836 -1.151
      vertex 56.6864 21.9836 -1.151
    endloop
  endfacet
  facet normal 0 -1 -0
    outer loop
      vertex 57.3136 21.9836 -1.151
      vertex 56.6864 21.9836 -3.5
      vertex 57.3136 21.9836 -3.5
    endloop
  endfacet
  facet normal 0.207906 -0.978149 0
    outer loop
      vertex 56.0729 21.8532 -3.5
      vertex 56.6864 21.9836 -1.151
      vertex 56.0729 21.8532 -1.151
    endloop
  endfacet
  facet normal 0.207906 -0.978149 0
    outer loop
      vertex 56.6864 21.9836 -1.151
      vertex 56.0729 21.8532 -3.5
      vertex 56.6864 21.9836 -3.5
    endloop
  endfacet
  facet normal 0.58784 -0.808977 0
    outer loop
      vertex 54.9926 21.2294 -3.5
      vertex 55.5 21.5981 -1.151
      vertex 54.9926 21.2294 -1.151
    endloop
  endfacet
  facet normal 0.58784 -0.808977 0
    outer loop
      vertex 55.5 21.5981 -1.151
      vertex 54.9926 21.2294 -3.5
      vertex 55.5 21.5981 -3.5
    endloop
  endfacet
  facet normal -0.207906 0.978149 0
    outer loop
      vertex 57.9271 16.1468 -3.5
      vertex 57.3136 16.0164 -1.151
      vertex 57.9271 16.1468 -1.151
    endloop
  endfacet
  facet normal -0.207906 0.978149 0
    outer loop
      vertex 57.3136 16.0164 -1.151
      vertex 57.9271 16.1468 -3.5
      vertex 57.3136 16.0164 -3.5
    endloop
  endfacet
  facet normal -0.866106 -0.49986 0
    outer loop
      vertex 59.7406 20.2202 -3.5
      vertex 59.4271 20.7634 -1.151
      vertex 59.4271 20.7634 -3.5
    endloop
  endfacet
  facet normal -0.866106 -0.49986 0
    outer loop
      vertex 59.4271 20.7634 -1.151
      vertex 59.7406 20.2202 -3.5
      vertex 59.7406 20.2202 -1.151
    endloop
  endfacet
  facet normal 0.866106 -0.49986 0
    outer loop
      vertex 54.2594 20.2202 -1.151
      vertex 54.5729 20.7634 -3.5
      vertex 54.5729 20.7634 -1.151
    endloop
  endfacet
  facet normal 0.866106 -0.49986 0
    outer loop
      vertex 54.5729 20.7634 -3.5
      vertex 54.2594 20.2202 -1.151
      vertex 54.2594 20.2202 -3.5
    endloop
  endfacet
  facet normal 0.58784 0.808977 -0
    outer loop
      vertex 55.5 16.4019 -3.5
      vertex 54.9926 16.7706 -1.151
      vertex 55.5 16.4019 -1.151
    endloop
  endfacet
  facet normal 0.58784 0.808977 0
    outer loop
      vertex 54.9926 16.7706 -1.151
      vertex 55.5 16.4019 -3.5
      vertex 54.9926 16.7706 -3.5
    endloop
  endfacet
  facet normal -0.406775 0.913529 0
    outer loop
      vertex 58.5 16.4019 -3.5
      vertex 57.9271 16.1468 -1.151
      vertex 58.5 16.4019 -1.151
    endloop
  endfacet
  facet normal -0.406775 0.913529 0
    outer loop
      vertex 57.9271 16.1468 -1.151
      vertex 58.5 16.4019 -3.5
      vertex 57.9271 16.1468 -3.5
    endloop
  endfacet
  facet normal 0 1 -0
    outer loop
      vertex 57.3136 16.0164 -3.5
      vertex 56.6864 16.0164 -1.151
      vertex 57.3136 16.0164 -1.151
    endloop
  endfacet
  facet normal 0 1 0
    outer loop
      vertex 56.6864 16.0164 -1.151
      vertex 57.3136 16.0164 -3.5
      vertex 56.6864 16.0164 -3.5
    endloop
  endfacet
  facet normal 0.406775 0.913529 -0
    outer loop
      vertex 56.0729 16.1468 -3.5
      vertex 55.5 16.4019 -1.151
      vertex 56.0729 16.1468 -1.151
    endloop
  endfacet
  facet normal 0.406775 0.913529 0
    outer loop
      vertex 55.5 16.4019 -1.151
      vertex 56.0729 16.1468 -3.5
      vertex 55.5 16.4019 -3.5
    endloop
  endfacet
  facet normal -0.207906 -0.978149 0
    outer loop
      vertex 57.3136 21.9836 -3.5
      vertex 57.9271 21.8532 -1.151
      vertex 57.3136 21.9836 -1.151
    endloop
  endfacet
  facet normal -0.207906 -0.978149 -0
    outer loop
      vertex 57.9271 21.8532 -1.151
      vertex 57.3136 21.9836 -3.5
      vertex 57.9271 21.8532 -3.5
    endloop
  endfacet
  facet normal 0.743056 -0.669229 0
    outer loop
      vertex 54.5729 20.7634 -1.151
      vertex 54.9926 21.2294 -3.5
      vertex 54.9926 21.2294 -1.151
    endloop
  endfacet
  facet normal 0.743056 -0.669229 0
    outer loop
      vertex 54.9926 21.2294 -3.5
      vertex 54.5729 20.7634 -1.151
      vertex 54.5729 20.7634 -3.5
    endloop
  endfacet
  facet normal -0.58784 0.808977 0
    outer loop
      vertex 59.0074 16.7706 -3.5
      vertex 58.5 16.4019 -1.151
      vertex 59.0074 16.7706 -1.151
    endloop
  endfacet
  facet normal -0.58784 0.808977 0
    outer loop
      vertex 58.5 16.4019 -1.151
      vertex 59.0074 16.7706 -3.5
      vertex 58.5 16.4019 -3.5
    endloop
  endfacet
  facet normal -0.743056 -0.669229 0
    outer loop
      vertex 59.4271 20.7634 -3.5
      vertex 59.0074 21.2294 -1.151
      vertex 59.0074 21.2294 -3.5
    endloop
  endfacet
  facet normal -0.743056 -0.669229 0
    outer loop
      vertex 59.0074 21.2294 -1.151
      vertex 59.4271 20.7634 -3.5
      vertex 59.4271 20.7634 -1.151
    endloop
  endfacet
  facet normal -0.58784 -0.808977 0
    outer loop
      vertex 58.5 21.5981 -3.5
      vertex 59.0074 21.2294 -1.151
      vertex 58.5 21.5981 -1.151
    endloop
  endfacet
  facet normal -0.58784 -0.808977 -0
    outer loop
      vertex 59.0074 21.2294 -1.151
      vertex 58.5 21.5981 -3.5
      vertex 59.0074 21.2294 -3.5
    endloop
  endfacet
  facet normal 0 0 -1
    outer loop
      vertex 58.6 19 -1.151
      vertex 60 19 -1.151
      vertex 59.9344 18.3763 -1.151
    endloop
  endfacet
  facet normal 0 0 -1
    outer loop
      vertex 58.565 18.6673 -1.151
      vertex 59.9344 18.3763 -1.151
      vertex 59.7406 17.7798 -1.151
    endloop
  endfacet
  facet normal 0 0 -1
    outer loop
      vertex 60 19 -1.151
      vertex 58.6 19 -1.151
      vertex 59.9344 19.6237 -1.151
    endloop
  endfacet
  facet normal 0 0 -1
    outer loop
      vertex 58.4617 18.3492 -1.151
      vertex 59.7406 17.7798 -1.151
      vertex 59.4271 17.2366 -1.151
    endloop
  endfacet
  facet normal 0 0 -1
    outer loop
      vertex 58.565 19.3327 -1.151
      vertex 59.9344 19.6237 -1.151
      vertex 58.6 19 -1.151
    endloop
  endfacet
  facet normal 0 0 -1
    outer loop
      vertex 58.2944 18.0595 -1.151
      vertex 59.4271 17.2366 -1.151
      vertex 59.0074 16.7706 -1.151
    endloop
  endfacet
  facet normal -0 0 -1
    outer loop
      vertex 59.9344 19.6237 -1.151
      vertex 58.565 19.3327 -1.151
      vertex 59.7406 20.2202 -1.151
    endloop
  endfacet
  facet normal 0 0 -1
    outer loop
      vertex 58.4617 19.6508 -1.151
      vertex 59.7406 20.2202 -1.151
      vertex 58.565 19.3327 -1.151
    endloop
  endfacet
  facet normal 0 0 -1
    outer loop
      vertex 59.9344 18.3763 -1.151
      vertex 58.565 18.6673 -1.151
      vertex 58.6 19 -1.151
    endloop
  endfacet
  facet normal 0 0 -1
    outer loop
      vertex 58.0706 17.811 -1.151
      vertex 59.0074 16.7706 -1.151
      vertex 58.5 16.4019 -1.151
    endloop
  endfacet
  facet normal 0 0 -1
    outer loop
      vertex 59.7406 17.7798 -1.151
      vertex 58.4617 18.3492 -1.151
      vertex 58.565 18.6673 -1.151
    endloop
  endfacet
  facet normal 0 0 -1
    outer loop
      vertex 59.4271 17.2366 -1.151
      vertex 58.2944 18.0595 -1.151
      vertex 58.4617 18.3492 -1.151
    endloop
  endfacet
  facet normal 0 0 -1
    outer loop
      vertex 59.0074 16.7706 -1.151
      vertex 58.0706 17.811 -1.151
      vertex 58.2944 18.0595 -1.151
    endloop
  endfacet
  facet normal 0 0 -1
    outer loop
      vertex 57.8 17.6144 -1.151
      vertex 58.5 16.4019 -1.151
      vertex 57.9271 16.1468 -1.151
    endloop
  endfacet
  facet normal 0 0 -1
    outer loop
      vertex 58.5 16.4019 -1.151
      vertex 57.8 17.6144 -1.151
      vertex 58.0706 17.811 -1.151
    endloop
  endfacet
  facet normal 0 0 -1
    outer loop
      vertex 57.9271 16.1468 -1.151
      vertex 57.4944 17.4783 -1.151
      vertex 57.8 17.6144 -1.151
    endloop
  endfacet
  facet normal 0 0 -1
    outer loop
      vertex 57.3136 16.0164 -1.151
      vertex 57.4944 17.4783 -1.151
      vertex 57.9271 16.1468 -1.151
    endloop
  endfacet
  facet normal 0 0 -1
    outer loop
      vertex 57.3136 16.0164 -1.151
      vertex 57.1672 17.4088 -1.151
      vertex 57.4944 17.4783 -1.151
    endloop
  endfacet
  facet normal 0 0 -1
    outer loop
      vertex 57.3136 16.0164 -1.151
      vertex 56.8328 17.4088 -1.151
      vertex 57.1672 17.4088 -1.151
    endloop
  endfacet
  facet normal 0 0 -1
    outer loop
      vertex 56.6864 16.0164 -1.151
      vertex 56.8328 17.4088 -1.151
      vertex 57.3136 16.0164 -1.151
    endloop
  endfacet
  facet normal 0 0 -1
    outer loop
      vertex 56.6864 16.0164 -1.151
      vertex 56.5056 17.4783 -1.151
      vertex 56.8328 17.4088 -1.151
    endloop
  endfacet
  facet normal 0 0 -1
    outer loop
      vertex 56.0729 16.1468 -1.151
      vertex 56.5056 17.4783 -1.151
      vertex 56.6864 16.0164 -1.151
    endloop
  endfacet
  facet normal -0 0 -1
    outer loop
      vertex 56.5056 17.4783 -1.151
      vertex 56.0729 16.1468 -1.151
      vertex 56.2 17.6144 -1.151
    endloop
  endfacet
  facet normal 0 0 -1
    outer loop
      vertex 55.5 16.4019 -1.151
      vertex 56.2 17.6144 -1.151
      vertex 56.0729 16.1468 -1.151
    endloop
  endfacet
  facet normal -0 0 -1
    outer loop
      vertex 56.2 17.6144 -1.151
      vertex 55.5 16.4019 -1.151
      vertex 55.9294 17.811 -1.151
    endloop
  endfacet
  facet normal 0 0 -1
    outer loop
      vertex 54.9926 16.7706 -1.151
      vertex 55.9294 17.811 -1.151
      vertex 55.5 16.4019 -1.151
    endloop
  endfacet
  facet normal -0 0 -1
    outer loop
      vertex 55.9294 17.811 -1.151
      vertex 54.9926 16.7706 -1.151
      vertex 55.7056 18.0595 -1.151
    endloop
  endfacet
  facet normal 0 0 -1
    outer loop
      vertex 54.5729 17.2366 -1.151
      vertex 55.7056 18.0595 -1.151
      vertex 54.9926 16.7706 -1.151
    endloop
  endfacet
  facet normal -0 0 -1
    outer loop
      vertex 55.7056 18.0595 -1.151
      vertex 54.5729 17.2366 -1.151
      vertex 55.5383 18.3492 -1.151
    endloop
  endfacet
  facet normal 0 0 -1
    outer loop
      vertex 54.2594 17.7798 -1.151
      vertex 55.5383 18.3492 -1.151
      vertex 54.5729 17.2366 -1.151
    endloop
  endfacet
  facet normal -0 0 -1
    outer loop
      vertex 59.7406 20.2202 -1.151
      vertex 58.4617 19.6508 -1.151
      vertex 59.4271 20.7634 -1.151
    endloop
  endfacet
  facet normal 0 0 -1
    outer loop
      vertex 58.2944 19.9405 -1.151
      vertex 59.4271 20.7634 -1.151
      vertex 58.4617 19.6508 -1.151
    endloop
  endfacet
  facet normal -0 0 -1
    outer loop
      vertex 59.4271 20.7634 -1.151
      vertex 58.2944 19.9405 -1.151
      vertex 59.0074 21.2294 -1.151
    endloop
  endfacet
  facet normal 0 0 -1
    outer loop
      vertex 58.0706 20.189 -1.151
      vertex 59.0074 21.2294 -1.151
      vertex 58.2944 19.9405 -1.151
    endloop
  endfacet
  facet normal -0 0 -1
    outer loop
      vertex 59.0074 21.2294 -1.151
      vertex 58.0706 20.189 -1.151
      vertex 58.5 21.5981 -1.151
    endloop
  endfacet
  facet normal 0 0 -1
    outer loop
      vertex 57.8 20.3856 -1.151
      vertex 58.5 21.5981 -1.151
      vertex 58.0706 20.189 -1.151
    endloop
  endfacet
  facet normal -0 0 -1
    outer loop
      vertex 58.5 21.5981 -1.151
      vertex 57.8 20.3856 -1.151
      vertex 57.9271 21.8532 -1.151
    endloop
  endfacet
  facet normal 0 0 -1
    outer loop
      vertex 57.4944 20.5217 -1.151
      vertex 57.9271 21.8532 -1.151
      vertex 57.8 20.3856 -1.151
    endloop
  endfacet
  facet normal 0 0 -1
    outer loop
      vertex 57.4944 20.5217 -1.151
      vertex 57.3136 21.9836 -1.151
      vertex 57.9271 21.8532 -1.151
    endloop
  endfacet
  facet normal 0 0 -1
    outer loop
      vertex 57.1672 20.5912 -1.151
      vertex 57.3136 21.9836 -1.151
      vertex 57.4944 20.5217 -1.151
    endloop
  endfacet
  facet normal 0 0 -1
    outer loop
      vertex 56.8328 20.5912 -1.151
      vertex 57.3136 21.9836 -1.151
      vertex 57.1672 20.5912 -1.151
    endloop
  endfacet
  facet normal 0 0 -1
    outer loop
      vertex 56.8328 20.5912 -1.151
      vertex 56.6864 21.9836 -1.151
      vertex 57.3136 21.9836 -1.151
    endloop
  endfacet
  facet normal 0 0 -1
    outer loop
      vertex 56.5056 20.5217 -1.151
      vertex 56.6864 21.9836 -1.151
      vertex 56.8328 20.5912 -1.151
    endloop
  endfacet
  facet normal 0 0 -1
    outer loop
      vertex 56.0729 21.8532 -1.151
      vertex 56.5056 20.5217 -1.151
      vertex 56.2 20.3856 -1.151
    endloop
  endfacet
  facet normal 0 0 -1
    outer loop
      vertex 56.5056 20.5217 -1.151
      vertex 56.0729 21.8532 -1.151
      vertex 56.6864 21.9836 -1.151
    endloop
  endfacet
  facet normal 0 0 -1
    outer loop
      vertex 55.5 21.5981 -1.151
      vertex 56.2 20.3856 -1.151
      vertex 55.9294 20.189 -1.151
    endloop
  endfacet
  facet normal 0 0 -1
    outer loop
      vertex 54.9926 21.2294 -1.151
      vertex 55.9294 20.189 -1.151
      vertex 55.7056 19.9405 -1.151
    endloop
  endfacet
  facet normal 0 0 -1
    outer loop
      vertex 54.5729 20.7634 -1.151
      vertex 55.7056 19.9405 -1.151
      vertex 55.5383 19.6508 -1.151
    endloop
  endfacet
  facet normal 0 0 -1
    outer loop
      vertex 56.2 20.3856 -1.151
      vertex 55.5 21.5981 -1.151
      vertex 56.0729 21.8532 -1.151
    endloop
  endfacet
  facet normal 0 0 -1
    outer loop
      vertex 54.2594 20.2202 -1.151
      vertex 55.5383 19.6508 -1.151
      vertex 55.435 19.3327 -1.151
    endloop
  endfacet
  facet normal 0 0 -1
    outer loop
      vertex 54.0656 19.6237 -1.151
      vertex 55.435 19.3327 -1.151
      vertex 55.4 19 -1.151
    endloop
  endfacet
  facet normal -0 0 -1
    outer loop
      vertex 55.5383 18.3492 -1.151
      vertex 54.2594 17.7798 -1.151
      vertex 55.435 18.6673 -1.151
    endloop
  endfacet
  facet normal 0 0 -1
    outer loop
      vertex 55.9294 20.189 -1.151
      vertex 54.9926 21.2294 -1.151
      vertex 55.5 21.5981 -1.151
    endloop
  endfacet
  facet normal 0 0 -1
    outer loop
      vertex 54.0656 18.3763 -1.151
      vertex 55.435 18.6673 -1.151
      vertex 54.2594 17.7798 -1.151
    endloop
  endfacet
  facet normal 0 0 -1
    outer loop
      vertex 55.7056 19.9405 -1.151
      vertex 54.5729 20.7634 -1.151
      vertex 54.9926 21.2294 -1.151
    endloop
  endfacet
  facet normal -0 0 -1
    outer loop
      vertex 55.435 18.6673 -1.151
      vertex 54.0656 18.3763 -1.151
      vertex 55.4 19 -1.151
    endloop
  endfacet
  facet normal 0 0 -1
    outer loop
      vertex 55.5383 19.6508 -1.151
      vertex 54.2594 20.2202 -1.151
      vertex 54.5729 20.7634 -1.151
    endloop
  endfacet
  facet normal 0 0 -1
    outer loop
      vertex 54 19 -1.151
      vertex 55.4 19 -1.151
      vertex 54.0656 18.3763 -1.151
    endloop
  endfacet
  facet normal 0 0 -1
    outer loop
      vertex 55.435 19.3327 -1.151
      vertex 54.0656 19.6237 -1.151
      vertex 54.2594 20.2202 -1.151
    endloop
  endfacet
  facet normal 0 0 -1
    outer loop
      vertex 55.4 19 -1.151
      vertex 54 19 -1.151
      vertex 54.0656 19.6237 -1.151
    endloop
  endfacet
  facet normal -0.866106 0.49986 0
    outer loop
      vertex 59.4271 17.2366 -3.5
      vertex 59.7406 17.7798 -1.151
      vertex 59.7406 17.7798 -3.5
    endloop
  endfacet
  facet normal -0.866106 0.49986 0
    outer loop
      vertex 59.7406 17.7798 -1.151
      vertex 59.4271 17.2366 -3.5
      vertex 59.4271 17.2366 -1.151
    endloop
  endfacet
  facet normal -1 0 0
    outer loop
      vertex 22 26 -3.5
      vertex 22 36 0
      vertex 22 36 -3.5
    endloop
  endfacet
  facet normal -1 -0 0
    outer loop
      vertex 22 36 0
      vertex 22 26 -3.5
      vertex 22 26 0
    endloop
  endfacet
  facet normal 1 -0 0
    outer loop
      vertex 10 26 0
      vertex 10 36 -3.5
      vertex 10 36 0
    endloop
  endfacet
  facet normal 1 0 0
    outer loop
      vertex 10 36 -3.5
      vertex 10 26 0
      vertex 10 26 -3.5
    endloop
  endfacet
  facet normal 0 -1 0
    outer loop
      vertex 10 36 -3.5
      vertex 22 36 0
      vertex 10 36 0
    endloop
  endfacet
  facet normal 0 -1 -0
    outer loop
      vertex 22 36 0
      vertex 10 36 -3.5
      vertex 22 36 -3.5
    endloop
  endfacet
  facet normal 0 1 -0
    outer loop
      vertex 22 26 -3.5
      vertex 10 26 0
      vertex 22 26 0
    endloop
  endfacet
  facet normal 0 1 0
    outer loop
      vertex 10 26 0
      vertex 22 26 -3.5
      vertex 10 26 -3.5
    endloop
  endfacet
endsolid OpenSCAD_Model
